<?xml version="1.0" encoding="UTF-8"?>
<svg version="1.1" xmlns="http://www.w3.org/2000/svg" width="1231" height="461">
<path d="M0 0 C406.23 0 812.46 0 1231 0 C1231 152.13 1231 304.26 1231 461 C824.77 461 418.54 461 0 461 C0 308.87 0 156.74 0 0 Z " fill="#24548B" transform="translate(0,0)"/>
<path d="M0 0 C0.67804688 0.4125 1.35609375 0.825 2.0546875 1.25 C2.75335937 1.6625 3.45203125 2.075 4.171875 2.5 C10.9314406 6.98937187 14.41693676 13.23006637 17.4296875 20.625 C19.38241797 31.95083674 17.9644339 41.73673822 11.55859375 51.3359375 C6.09174797 58.29374122 -0.97444002 63.47570237 -9.8671875 64.62890625 C-16.09380157 64.87386188 -20.60081309 64.06328943 -26.0078125 60.9296875 C-27.94677437 60.01296269 -27.94677437 60.01296269 -29.84082031 60.99194336 C-32.10956234 62.34818787 -33.71330386 63.80602451 -35.5546875 65.69921875 C-36.22757813 66.38306641 -36.90046875 67.06691406 -37.59375 67.77148438 C-38.28726562 68.48626953 -38.98078125 69.20105469 -39.6953125 69.9375 C-44.30863882 74.66922918 -48.9743713 79.2054741 -53.98535156 83.51489258 C-57.29087394 86.44119396 -60.35576597 89.59917055 -63.4453125 92.75 C-67.76489486 97.11612617 -72.08902556 101.35457416 -76.7890625 105.3125 C-80.60607588 108.74228014 -84.17053316 112.43630936 -87.76000977 116.10180664 C-88.32776123 116.67793701 -88.8955127 117.25406738 -89.48046875 117.84765625 C-90.04403076 118.41967773 -90.60759277 118.99169922 -91.18823242 119.58105469 C-92.97830902 121.28134142 -94.86265338 122.75743577 -96.8125 124.26953125 C-99.39971748 126.45205641 -99.8928561 127.06403868 -100.85546875 130.4765625 C-100.90574219 131.59804687 -100.95601562 132.71953125 -101.0078125 133.875 C-101.92432752 143.01120765 -104.93759593 150.77474947 -111.6328125 157.25 C-117.93091918 162.16588861 -125.66821286 165.01076355 -133.6953125 164.56640625 C-142.62149046 163.31116247 -149.88185847 160.225658 -155.66796875 153.140625 C-157.23857341 150.90241689 -158.61992719 148.64064827 -159.9453125 146.25 C-160.28691406 145.65832031 -160.62851562 145.06664062 -160.98046875 144.45703125 C-162.93988783 140.32858082 -162.88286095 137.22688457 -162.43017578 132.69335938 C-161.95236869 126.95967427 -161.96414342 122.93255928 -165.76953125 118.34765625 C-169.24934409 114.69745257 -173.04774758 111.44250615 -176.9453125 108.25 C-178.26015886 107.10685988 -179.57322965 105.96166624 -180.8828125 104.8125 C-181.47964844 104.30847656 -182.07648438 103.80445313 -182.69140625 103.28515625 C-186.77355959 99.5991911 -190.5831303 95.63030342 -194.45239258 91.72338867 C-198.12367418 88.03008764 -201.84378304 84.50023259 -205.828125 81.14453125 C-211.09660682 76.43011486 -215.98198953 71.28141734 -220.9453125 66.25 C-224.34807682 67.38425477 -225.0558203 68.33405449 -227.2578125 71.0625 C-232.44363117 77.15256856 -237.94310269 80.57437686 -245.953125 81.65625 C-255.38089293 81.93979189 -262.71388312 79.60788864 -270.02734375 73.515625 C-271.6953125 71.875 -271.6953125 71.875 -273.9453125 69.25 C-277.43185726 70.7341373 -279.58722322 72.71214052 -282.1953125 75.4375 C-284.92339933 78.23190985 -287.64729353 80.92067541 -290.6328125 83.4375 C-294.61090644 86.84160043 -298.26531089 90.53127172 -301.9453125 94.25 C-306.11176965 98.46011927 -310.29816668 102.52241225 -314.82421875 106.34765625 C-318.4173036 109.57018355 -321.76042174 113.04583683 -325.15283203 116.47705078 C-328.14503873 119.49023702 -331.16375631 122.41330378 -334.3828125 125.1875 C-334.98738281 125.71472656 -335.59195313 126.24195313 -336.21484375 126.78515625 C-337.39412191 127.78341654 -338.60181211 128.74883097 -339.83203125 129.68359375 C-341.84615742 131.24292694 -341.84615742 131.24292694 -343.9453125 134.25 C-343.44871347 137.95019577 -343.44871347 137.95019577 -342.62109375 140.5078125 C-340.06244453 150.89030819 -341.52607819 161.11322332 -346.9453125 170.25 C-351.85394176 177.08921985 -357.45460797 182.5549133 -365.9453125 184.25 C-375.7132855 185.3217637 -382.7125743 183.6114437 -390.9453125 178.25 C-393.9453125 175.6875 -393.9453125 175.6875 -395.9453125 173.25 C-396.6259375 172.528125 -397.3065625 171.80625 -398.0078125 171.0625 C-403.58178684 162.97124693 -405.09431333 154.98133358 -403.9453125 145.25 C-401.50836325 134.76290378 -395.69625548 126.46471836 -386.9453125 120.25 C-380.86610603 116.67399619 -374.82396803 116.31162068 -367.9453125 117.25 C-364.68321451 118.36181565 -361.64001849 119.65578742 -358.5390625 121.15625 C-355.80018324 122.5090355 -355.80018324 122.5090355 -351.9453125 122.25 C-349.96160799 120.80226899 -349.96160799 120.80226899 -348.1171875 118.77734375 C-347.39917969 118.04193359 -346.68117188 117.30652344 -345.94140625 116.54882812 C-345.20019531 115.76958984 -344.45898438 114.99035156 -343.6953125 114.1875 C-338.88316792 109.20013523 -334.05712861 104.38151933 -328.79394531 99.86938477 C-326.04259283 97.45922615 -323.49718903 94.86774259 -320.9453125 92.25 C-317.7236851 88.98413743 -314.50984671 85.78145501 -311.0078125 82.8125 C-306.67298225 79.12925175 -302.73850807 75.06950122 -298.74267578 71.02783203 C-295.16675135 67.42679136 -291.51804623 63.98033545 -287.62890625 60.71484375 C-287.07332031 60.23144531 -286.51773438 59.74804688 -285.9453125 59.25 C-285.22472656 58.65445313 -284.50414062 58.05890625 -283.76171875 57.4453125 C-281.39097632 54.5800281 -281.48110035 52.86917473 -281.4453125 49.1875 C-280.83930353 37.17505543 -276.33235819 28.08081354 -267.5703125 19.9375 C-261.06051832 14.74381638 -254.60110235 13.55107015 -246.32421875 13.78125 C-237.26074284 15.03861082 -230.21186206 19.85431305 -224.5703125 26.90625 C-219.2172921 34.6269525 -218.3761212 40.90577618 -218.9453125 50.25 C-218.3687793 50.49983643 -217.79224609 50.74967285 -217.19824219 51.00708008 C-214.63067899 52.42358032 -212.94541482 54.03921967 -210.8984375 56.13671875 C-210.1353125 56.91080078 -209.3721875 57.68488281 -208.5859375 58.48242188 C-207.79703125 59.29259766 -207.008125 60.10277344 -206.1953125 60.9375 C-201.22491508 66.01973137 -196.23479043 70.95133936 -190.83886719 75.58129883 C-187.72641715 78.32415546 -184.8460744 81.28685613 -181.9453125 84.25 C-177.72707972 88.51741197 -173.48276782 92.64278235 -168.8984375 96.51953125 C-164.71935698 100.22219659 -160.85560647 104.26758995 -156.9453125 108.25 C-156.0171875 107.363125 -155.0890625 106.47625 -154.1328125 105.5625 C-146.95756548 99.49667873 -139.37909882 96.37874501 -129.93359375 96.83203125 C-118.65583651 98.40944305 -111.7907282 103.51211516 -104.9453125 112.25 C-96.25660674 104.13676603 -87.62590188 95.99926609 -79.26953125 87.54296875 C-77.30127297 85.60117445 -75.30395865 83.78493075 -73.1953125 82 C-68.33825541 77.86548033 -63.93883336 73.26798213 -59.4543457 68.73950195 C-55.62727145 64.88934116 -51.7471298 61.18449448 -47.59765625 57.6796875 C-44.90002462 55.34556651 -42.43544508 52.8023859 -39.9453125 50.25 C-40.3784375 48.950625 -40.3784375 48.950625 -40.8203125 47.625 C-41.1915625 46.51125 -41.5628125 45.3975 -41.9453125 44.25 C-42.45771484 42.89261719 -42.45771484 42.89261719 -42.98046875 41.5078125 C-45.64920219 32.4967854 -45.14019985 23.07271628 -40.9453125 14.6875 C-36.48722796 6.81871223 -30.96537542 1.28909246 -22.49609375 -2.08984375 C-14.84654305 -4.06958964 -7.02125496 -3.7035191 0 0 Z " fill="#FBFBFC" transform="translate(1123.9453125,52.75)"/>
<path d="M0 0 C14.19 0 28.38 0 43 0 C43.73605469 2.96742188 44.47210938 5.93484375 45.23046875 8.9921875 C45.96140591 11.93162499 46.69318934 14.87085062 47.42504883 17.81005859 C47.92527832 19.82090746 48.42465626 21.8319684 48.9230957 23.84326172 C51.59866706 34.63715786 54.31340698 45.40991385 57.35856628 56.10641479 C59.13354179 62.35540246 60.62033319 68.65128929 62 75 C63.75381289 70.99080577 64.78810727 66.95394079 65.69921875 62.69140625 C65.93309296 61.62429665 65.93309296 61.62429665 66.17169189 60.53562927 C66.50653611 59.00648324 66.83953794 57.47693282 67.17086792 55.94702148 C68.04738311 51.90145523 68.93809624 47.85901728 69.828125 43.81640625 C70.00830673 42.99669342 70.18848846 42.17698059 70.37413025 41.33242798 C72.16497083 33.20668096 74.03779362 25.10089529 75.9375 17 C76.23164795 15.74388916 76.5257959 14.48777832 76.82885742 13.19360352 C77.86327678 8.78942435 78.90274789 4.38900843 80 0 C93.86 0 107.72 0 122 0 C122 1.32 122 2.64 122 4 C119.36 4 116.72 4 114 4 C114 37 114 70 114 104 C116.64 104 119.28 104 122 104 C122 105.32 122 106.64 122 108 C106.49 108 90.98 108 75 108 C75 106.68 75 105.36 75 104 C77.64 104 80.28 104 83 104 C82.67 75.29 82.34 46.58 82 17 C75.92466495 41.82721961 75.92466495 41.82721961 70.26223755 66.73712158 C67.98843679 77.22990129 65.66823678 87.70887161 63.0625 98.125 C62.76339722 99.32346558 62.76339722 99.32346558 62.45825195 100.54614258 C61.13751032 105.72497935 61.13751032 105.72497935 60 108 C53.4 108 46.8 108 40 108 C39.56429687 106.37835938 39.12859375 104.75671875 38.6796875 103.0859375 C35.29742081 90.50547366 31.90072448 77.92921135 28.46484375 65.36328125 C27.47330208 61.7369014 26.4867082 58.10922675 25.50390625 54.48046875 C25.12600952 53.08779785 25.12600952 53.08779785 24.74047852 51.66699219 C24.27763807 49.96090708 23.81573119 48.25456811 23.35522461 46.54785156 C20.67142418 36.6683259 17.81325876 26.84640568 15 17 C14.67 45.71 14.34 74.42 14 104 C16.64 104 19.28 104 22 104 C22 105.32 22 106.64 22 108 C15.07 108 8.14 108 1 108 C1 107.01 1 106.02 1 105 C3.64 105 6.28 105 9 105 C9 71.67 9 38.34 9 4 C6.03 4 3.06 4 0 4 C0 2.68 0 1.36 0 0 Z " fill="#F9FAFC" transform="translate(409,249)"/>
<path d="M0 0 C9.24 0 18.48 0 28 0 C31.3046875 9.1796875 31.3046875 9.1796875 32.45317078 12.36997986 C34.40589758 17.79431064 36.35874369 23.21859844 38.31176758 28.64282227 C42.12226187 39.2262229 45.93219323 49.80982346 49.73803711 60.39489746 C51.33730181 64.84276233 52.93709747 69.29043615 54.53692627 73.73809814 C55.29317141 75.84098999 56.04916051 77.94397393 56.80487061 80.04705811 C57.87314233 83.01989751 58.94229932 85.99241704 60.01171875 88.96484375 C60.34679443 89.89752075 60.68187012 90.83019775 61.02709961 91.7911377 C62.68247887 96.38808581 64.35825873 100.97601207 66.07275391 105.55126953 C66.40080521 106.42916641 66.72885651 107.30706329 67.06684875 108.21156311 C67.68500862 109.86119402 68.30731423 111.50927959 68.93449402 113.15550232 C70.08795515 116.23431613 71 118.68327583 71 122 C62.09 122 53.18 122 44 122 C42.68 118.101875 41.36 114.20375 40 110.1875 C39.58234375 108.96184326 39.1646875 107.73618652 38.734375 106.47338867 C38.40953125 105.5063501 38.0846875 104.53931152 37.75 103.54296875 C37.24726562 102.0583313 37.24726562 102.0583313 36.734375 100.54370117 C36 98 36 98 36 95 C21.48 95 6.96 95 -8 95 C-8.66 97.97 -9.32 100.94 -10 104 C-10.46987221 105.61535165 -10.9652176 107.22400817 -11.5078125 108.81640625 C-11.7464502 109.52482666 -11.98508789 110.23324707 -12.23095703 110.96313477 C-12.52599121 111.82092529 -12.82102539 112.67871582 -13.125 113.5625 C-14.548125 117.7390625 -14.548125 117.7390625 -16 122 C-24.91 122 -33.82 122 -43 122 C-42.24775965 118.23879825 -41.4075224 115.0602498 -40.13671875 111.48681641 C-39.75061935 110.39598755 -39.36451996 109.30515869 -38.96672058 108.18127441 C-38.54457779 106.99996948 -38.122435 105.81866455 -37.6875 104.6015625 C-37.24622269 103.3585437 -36.80494537 102.1155249 -36.35029602 100.83483887 C-35.1527009 97.46220116 -33.95063424 94.0911736 -32.74753189 90.72049713 C-31.75007316 87.92439981 -30.75511062 85.12741688 -29.76007175 82.33045769 C-21.98899747 60.4895452 -14.14679158 38.6743508 -6.23828125 16.8828125 C-5.80845695 15.69782166 -5.80845695 15.69782166 -5.36994934 14.4888916 C-5.1000267 13.74635132 -4.83010406 13.00381104 -4.55200195 12.23876953 C-4.32301712 11.60858917 -4.09403229 10.97840881 -3.85810852 10.32913208 C-2.58749945 6.88036508 -1.29051318 3.44136847 0 0 Z " fill="#FCFDFD" transform="translate(974,235)"/>
<path d="M0 0 C1.25852783 -0.02102783 1.25852783 -0.02102783 2.54248047 -0.04248047 C11.57765133 0.02654434 20.8971706 2.61655405 27.625 8.875 C28.388125 9.7 29.15125 10.525 29.9375 11.375 C30.43572266 11.82037109 30.93394531 12.26574219 31.44726562 12.72460938 C37.46461918 19.38865099 37.56192624 29.42438448 37.4375 37.875 C37.46070313 39.45087891 37.46070313 39.45087891 37.484375 41.05859375 C37.43480839 51.08344143 35.12672743 60.18676825 28.0625 67.5859375 C15.94281145 77.78964588 1.03566718 77.64274332 -14.0625 76.375 C-18.50235285 75.54367372 -22.25876951 73.79907231 -26.0625 71.375 C-26.74054687 70.9521875 -27.41859375 70.529375 -28.1171875 70.09375 C-34.26878322 65.55265788 -38.52709547 57.80737028 -40.0625 50.375 C-41.04524646 38.27353474 -41.71651819 25.96597895 -35.0625 15.375 C-34.52109375 14.46814453 -34.52109375 14.46814453 -33.96875 13.54296875 C-29.4210785 7.1275036 -20.685532 2.83492747 -13.23046875 0.84375 C-8.81634002 0.19061135 -4.4581242 0.05141165 0 0 Z " fill="#FBFCFD" transform="translate(769.0625,281.625)"/>
<path d="M0 0 C1.25852783 -0.02102783 1.25852783 -0.02102783 2.54248047 -0.04248047 C11.57765133 0.02654434 20.8971706 2.61655405 27.625 8.875 C28.388125 9.7 29.15125 10.525 29.9375 11.375 C30.43572266 11.82037109 30.93394531 12.26574219 31.44726562 12.72460938 C37.46461918 19.38865099 37.56192624 29.42438448 37.4375 37.875 C37.46070313 39.45087891 37.46070313 39.45087891 37.484375 41.05859375 C37.43480839 51.08344143 35.12672743 60.18676825 28.0625 67.5859375 C15.94281145 77.78964588 1.03566718 77.64274332 -14.0625 76.375 C-18.50235285 75.54367372 -22.25876951 73.79907231 -26.0625 71.375 C-26.74054687 70.9521875 -27.41859375 70.529375 -28.1171875 70.09375 C-34.26878322 65.55265788 -38.52709547 57.80737028 -40.0625 50.375 C-41.04524646 38.27353474 -41.71651819 25.96597895 -35.0625 15.375 C-34.52109375 14.46814453 -34.52109375 14.46814453 -33.96875 13.54296875 C-29.4210785 7.1275036 -20.685532 2.83492747 -13.23046875 0.84375 C-8.81634002 0.19061135 -4.4581242 0.05141165 0 0 Z " fill="#FBFCFD" transform="translate(577.0625,281.625)"/>
<path d="M0 0 C15.51 0 31.02 0 47 0 C47 0.99 47 1.98 47 3 C44.03 3 41.06 3 38 3 C38.268125 3.86753906 38.53625 4.73507812 38.8125 5.62890625 C43.36345263 20.6194624 47.14003559 35.82054249 51 51 C51.23187012 50.27409668 51.46374023 49.54819336 51.70263672 48.80029297 C52.75970484 45.49173841 53.81734707 42.18336765 54.875 38.875 C55.23980469 37.73289062 55.60460937 36.59078125 55.98046875 35.4140625 C56.51220703 33.75117188 56.51220703 33.75117188 57.0546875 32.0546875 C57.37937012 31.03874512 57.70405273 30.02280273 58.03857422 28.97607422 C58.70116739 26.92503035 59.40326655 24.88647179 60.13720703 22.85986328 C62.05031956 16.51855028 59.5011383 9.29603635 58 3 C56.35 3 54.7 3 53 3 C53 2.01 53 1.02 53 0 C65.87 0 78.74 0 92 0 C92 0.99 92 1.98 92 3 C90.35 3 88.7 3 87 3 C90.60170645 17.05746413 94.36498168 31.05251181 98.4309082 44.9831543 C98.99439171 46.98012437 99.50737149 48.98449576 100 51 C100.21914063 50.01644531 100.43828125 49.03289062 100.6640625 48.01953125 C102.77572609 38.71821005 105.19290373 29.54615833 107.89306641 20.39770508 C109.48590689 14.96575106 110.82749965 9.53866833 112 4 C109.03 3.67 106.06 3.34 103 3 C103 2.01 103 1.02 103 0 C109.93 0 116.86 0 124 0 C124 0.99 124 1.98 124 3 C121.69 3 119.38 3 117 3 C116.90203125 3.70382812 116.8040625 4.40765625 116.703125 5.1328125 C115.69627206 11.78151382 114.18603809 18.06530462 112.26953125 24.50390625 C110.50345291 30.60187484 109.02570041 36.77606424 107.5 42.9375 C103.38406536 59.51602558 103.38406536 59.51602558 101.625 66.1875 C101.32851563 67.31542969 101.03203125 68.44335938 100.7265625 69.60546875 C100 72 100 72 99 73 C97.36527118 73.08700342 95.72685945 73.10701063 94.08984375 73.09765625 C93.10048828 73.09443359 92.11113281 73.09121094 91.09179688 73.08789062 C90.05087891 73.07951172 89.00996094 73.07113281 87.9375 73.0625 C86.89271484 73.05798828 85.84792969 73.05347656 84.77148438 73.04882812 C82.1809334 73.03699913 79.59049441 73.02051689 77 73 C76.72027344 71.99066406 76.44054687 70.98132813 76.15234375 69.94140625 C72.4578518 56.62117179 68.73101715 43.31004384 65 30 C63.28858314 32.56712529 62.53788234 34.10324516 61.703125 36.96484375 C61.35241943 38.15158691 61.35241943 38.15158691 60.99462891 39.36230469 C60.6260376 40.63702637 60.6260376 40.63702637 60.25 41.9375 C59.72150721 43.73311797 59.19285645 45.52868945 58.6640625 47.32421875 C58.39239258 48.25282715 58.12072266 49.18143555 57.84082031 50.13818359 C56.45689018 54.84852884 55.03927362 59.54869721 53.625 64.25 C52.75875 67.1375 51.8925 70.025 51 73 C43.74 73 36.48 73 29 73 C26.66910264 65.88782398 24.33965624 58.77517486 22.01147461 51.66210938 C21.22149552 49.24922271 20.43114013 46.83645921 19.64038086 44.42382812 C12.05419439 21.27660262 12.05419439 21.27660262 8.94921875 11.4375 C8.56467529 10.21933594 8.18013184 9.00117188 7.78393555 7.74609375 C7 5 7 5 7 3 C4.69 3 2.38 3 0 3 C0 2.01 0 1.02 0 0 Z " fill="#FCFCFD" transform="translate(279,284)"/>
<path d="M0 0 C5.16747266 3.90431268 7.23133508 8.9165687 9 15 C9.49700822 19.13156551 9.46965258 23.19513599 9.390625 27.3515625 C9.38496521 28.49160736 9.37930542 29.63165222 9.37347412 30.8062439 C9.35125659 34.41294067 9.30108613 38.0186084 9.25 41.625 C9.22991617 44.08462097 9.21166872 46.54425767 9.1953125 49.00390625 C9.15143985 55.00294953 9.08467526 61.00140121 9 67 C11.64 67 14.28 67 17 67 C17 68.32 17 69.64 17 71 C2.48 71 -12.04 71 -27 71 C-27 69.68 -27 68.36 -27 67 C-25.02 67 -23.04 67 -21 67 C-21.08429078 59.21134319 -21.17912965 51.4228932 -21.28752708 43.63453865 C-21.3375243 40.01827982 -21.38385371 36.40205068 -21.421875 32.78564453 C-21.45868502 29.29716911 -21.50503264 25.80894014 -21.55806351 22.3206749 C-21.58568111 20.33871227 -21.60335779 18.35661928 -21.62094116 16.37454224 C-21.64081085 15.17344818 -21.66068054 13.97235413 -21.68115234 12.73486328 C-21.69447601 11.67341095 -21.70779968 10.61195862 -21.7215271 9.51834106 C-21.75321281 6.83004968 -21.75321281 6.83004968 -24 5 C-27.67136192 5.07981222 -29.45542072 5.50209894 -32.1875 8 C-36.70483995 15.47697648 -37.45696621 22.78042683 -37.51171875 31.37890625 C-37.52966995 32.43158188 -37.54762115 33.48425751 -37.56611633 34.5688324 C-37.61989126 37.90001532 -37.65400969 41.23105769 -37.6875 44.5625 C-37.72070202 46.8340038 -37.75519431 49.10548912 -37.79101562 51.37695312 C-37.87559852 56.91784258 -37.94408596 62.458751 -38 68 C-36.02 68 -34.04 68 -32 68 C-32 68.99 -32 69.98 -32 71 C-46.19 71 -60.38 71 -75 71 C-75 70.01 -75 69.02 -75 68 C-72.36 68 -69.72 68 -67 68 C-67 45.89 -67 23.78 -67 1 C-69.64 1 -72.28 1 -75 1 C-75 0.01 -75 -0.98 -75 -2 C-62.79 -2 -50.58 -2 -38 -2 C-37.505 2.455 -37.505 2.455 -37 7 C-36.36384766 6.18595703 -36.36384766 6.18595703 -35.71484375 5.35546875 C-26.66923825 -5.67818192 -12.39097799 -8.02236396 0 0 Z " fill="#FBFCFD" transform="translate(886,286)"/>
<path d="M0 0 C1.30904297 -0.02416992 1.30904297 -0.02416992 2.64453125 -0.04882812 C11.23108068 -0.05518853 19.82714784 1.59291243 26.5 7.3125 C30.34230691 12.48911285 31.59614488 17.61911201 31.67358398 23.96337891 C31.68707382 24.85425201 31.70056366 25.74512512 31.71446228 26.66299438 C31.73011986 28.0866481 31.73011986 28.0866481 31.74609375 29.5390625 C31.77900928 31.55990054 31.81222129 33.58073377 31.84570312 35.6015625 C31.89324551 38.77926575 31.93773907 41.95694639 31.97680664 45.13476562 C32.01642223 48.20722736 32.06796427 51.27930896 32.12109375 54.3515625 C32.1295079 55.30471344 32.13792206 56.25786438 32.14659119 57.23989868 C32.16323318 58.12446747 32.17987518 59.00903625 32.19702148 59.92041016 C32.21248268 61.08692612 32.21248268 61.08692612 32.22825623 62.27700806 C32.38966879 64.62336431 32.38966879 64.62336431 34.5 67.3125 C36.46756452 67.28127057 36.46756452 67.28127057 38.5 66.3125 C40.5815665 61.8206986 40.99600157 57.18448478 41.5 52.3125 C42.49 52.3125 43.48 52.3125 44.5 52.3125 C44.87347271 59.03500878 44.62624664 66.66104392 40.03515625 72.0234375 C34.7061559 76.53158939 30.91489684 76.52265009 24.25 76.5625 C23.40308594 76.583125 22.55617188 76.60375 21.68359375 76.625 C15.74708923 76.66193004 11.30092908 75.98966709 6.8203125 71.70703125 C5.71354167 70.2421875 4.60677083 68.77734375 3.5 67.3125 C2.96375 68.240625 2.4275 69.16875 1.875 70.125 C-0.80088037 73.71631312 -2.37797695 74.6800633 -6.5 76.3125 C-9.22743771 76.59812489 -11.6610323 76.74336542 -14.375 76.6875 C-15.08245361 76.67734863 -15.78990723 76.66719727 -16.51879883 76.65673828 C-22.45550061 76.48017701 -27.54858403 76.10740149 -32.046875 71.84765625 C-36.93956271 66.22656278 -36.84767424 62.00254062 -36.7734375 54.7421875 C-36.43039364 50.43943739 -35.6017052 48.3346743 -32.5 45.3125 C-24.77364413 39.61335632 -16.87078864 39.02207587 -7.5625 39.1875 C-6.1074707 39.20103516 -6.1074707 39.20103516 -4.62304688 39.21484375 C-2.24843593 39.23823893 0.12564776 39.27101824 2.5 39.3125 C2.40608167 35.27362995 2.29990508 31.23528224 2.18261719 27.19702148 C2.14445712 25.82471419 2.10958204 24.45231129 2.078125 23.07983398 C2.03219318 21.1011771 1.97326363 19.12283558 1.9140625 17.14453125 C1.8826416 15.95577393 1.8512207 14.7670166 1.81884766 13.54223633 C1.5100289 10.41408672 0.8293088 8.14136241 -0.5 5.3125 C-5.78199593 4.11261955 -5.78199593 4.11261955 -10.5 6.3125 C-10.75015873 9.89607241 -10.75015873 9.89607241 -10.5 13.3125 C-9.18 13.3125 -7.86 13.3125 -6.5 13.3125 C-4.90218466 16.50813068 -5.13158089 19.8359633 -5.5 23.3125 C-7.28483689 27.44580649 -9.55416187 30.13826266 -13.5 32.3125 C-18.2625372 33.03490733 -23.18188901 33.49334225 -27.578125 31.25390625 C-30.65613844 28.73621079 -32.35380893 26.6887845 -32.7734375 22.73828125 C-32.96727986 16.79626741 -33.06310354 12.32681021 -29.0390625 7.70703125 C-20.97022182 0.39592434 -10.41217961 -0.0384497 0 0 Z " fill="#FBFCFD" transform="translate(233.5,281.6875)"/>
<path d="M0 0 C18.48 0 36.96 0 56 0 C56 1.32 56 2.64 56 4 C50.39 4 44.78 4 39 4 C39 37 39 70 39 104 C52.59507402 103.14263648 52.59507402 103.14263648 63 97 C63.95712891 96.12601563 63.95712891 96.12601563 64.93359375 95.234375 C71.5017361 88.52539529 75.64147349 80.22268311 80 72 C81.32 72 82.64 72 84 72 C84 84.01850425 82.99808245 96.02301057 82 108 C54.94 108 27.88 108 0 108 C0 106.68 0 105.36 0 104 C2.97 104 5.94 104 9 104 C9 71 9 38 9 4 C6.03 4 3.06 4 0 4 C0 2.68 0 1.36 0 0 Z " fill="#FDFDFE" transform="translate(106,249)"/>
<path d="M0 0 C8.58 0 17.16 0 26 0 C26 40.26 26 80.52 26 122 C17.42 122 8.84 122 0 122 C0 81.74 0 41.48 0 0 Z " fill="#FDFDFD" transform="translate(1059,235)"/>
<path d="M0 0 C0 8.91 0 17.82 0 27 C6.6 27 13.2 27 20 27 C20 27.99 20 28.98 20 30 C13.4 30 6.8 30 0 30 C0.08560788 37.47607378 0.17941275 44.9519374 0.28752708 52.42772198 C0.33740742 55.89928401 0.3837378 59.37081683 0.421875 62.8425293 C0.46590781 66.83661816 0.52552492 70.83034381 0.5859375 74.82421875 C0.59748871 76.06709152 0.60903992 77.30996429 0.62094116 78.59049988 C0.64081085 79.75132584 0.66068054 80.91215179 0.68115234 82.1081543 C0.69447601 83.12741501 0.70779968 84.14667572 0.7215271 85.19682312 C1.0127653 88.1284987 1.77459995 90.33462611 3 93 C6.25639659 93.94271002 6.25639659 93.94271002 10 94 C15.64440639 90.32457259 17.07629026 84.13652659 19 78 C19.99 78 20.98 78 22 78 C21.67586234 85.00137342 20.67359406 91.62765738 15.28515625 96.57421875 C9.24619181 101.03002972 4.13451346 101.23722227 -3.1875 101.3125 C-4.10853516 101.34150391 -5.02957031 101.37050781 -5.97851562 101.40039062 C-13.26887149 101.46765438 -18.45862651 100.00378359 -24.05859375 95.25390625 C-24.74115234 94.41666016 -24.74115234 94.41666016 -25.4375 93.5625 C-25.91058594 93.00691406 -26.38367188 92.45132813 -26.87109375 91.87890625 C-29.1795299 88.03683779 -29.12359295 83.76293339 -29.11352539 79.38354492 C-29.11341209 77.73239937 -29.11341209 77.73239937 -29.11329651 76.04789734 C-29.10813522 74.8706459 -29.10297394 73.69339447 -29.09765625 72.48046875 C-29.0962413 71.26676102 -29.09482635 70.05305328 -29.09336853 68.80256653 C-29.08777665 64.93085248 -29.07522558 61.05919653 -29.0625 57.1875 C-29.05748395 54.56054771 -29.05292123 51.93359451 -29.04882812 49.30664062 C-29.03780987 42.87107397 -29.02107976 36.43554114 -29 30 C-31.64 30 -34.28 30 -37 30 C-37 29.01 -37 28.02 -37 27 C-34.36 27 -31.72 27 -29 27 C-29 20.4 -29 13.8 -29 7 C-26.195 6.21625 -23.39 5.4325 -20.5 4.625 C-19.1996582 4.26075928 -19.1996582 4.26075928 -17.87304688 3.88916016 C-3.91131001 0 -3.91131001 0 0 0 Z " fill="#FDFDFE" transform="translate(655,257)"/>
<path d="M0 0 C12.54 0 25.08 0 38 0 C38 22.77 38 45.54 38 69 C40.64 69 43.28 69 46 69 C46 70.32 46 71.64 46 73 C30.82 73 15.64 73 0 73 C0 72.01 0 71.02 0 70 C2.64 69.67 5.28 69.34 8 69 C8.33 47.22 8.66 25.44 9 3 C6.03 3 3.06 3 0 3 C0 2.01 0 1.02 0 0 Z " fill="#FCFCFD" transform="translate(679,284)"/>
<path d="M0 0 C3.625 0.375 3.625 0.375 5.9375 1.75 C10.05827772 8.16009867 9.92737381 16.58800602 9.890625 24.00390625 C9.89253845 24.87844955 9.8944519 25.75299286 9.89642334 26.65403748 C9.89777318 28.48672781 9.89416156 30.31942811 9.88574219 32.15209961 C9.87501233 34.93430307 9.88568531 37.71586291 9.8984375 40.49804688 C9.89711594 42.29166807 9.89455363 44.08528887 9.890625 45.87890625 C9.89467346 46.69790909 9.89872192 47.51691193 9.90289307 48.36073303 C9.84926743 55.06269522 9.20953819 61.49935662 5.9375 67.4375 C3.625 69.375 3.625 69.375 0.1875 70.1875 C-3.64346041 69.31377219 -4.01214671 69.14357968 -6.06054688 66.08447266 C-9.23808833 60.63758173 -9.06071593 55.37666572 -8.96875 49.2109375 C-8.96879028 48.06009674 -8.96883057 46.90925598 -8.96887207 45.72354126 C-8.96353121 43.30131541 -8.94601045 40.87908916 -8.91699219 38.45703125 C-8.87505289 34.75466896 -8.8759359 31.05412293 -8.8828125 27.3515625 C-8.87232197 24.99217489 -8.85938462 22.63279663 -8.84375 20.2734375 C-8.84354858 19.17019135 -8.84334717 18.06694519 -8.84313965 16.93026733 C-8.73619821 9.97535115 -8.49017816 0.94335313 0 0 Z " fill="#29588D" transform="translate(767.375,285.625)"/>
<path d="M0 0 C3.625 0.375 3.625 0.375 5.9375 1.75 C10.05827772 8.16009867 9.92737381 16.58800602 9.890625 24.00390625 C9.89253845 24.87844955 9.8944519 25.75299286 9.89642334 26.65403748 C9.89777318 28.48672781 9.89416156 30.31942811 9.88574219 32.15209961 C9.87501233 34.93430307 9.88568531 37.71586291 9.8984375 40.49804688 C9.89711594 42.29166807 9.89455363 44.08528887 9.890625 45.87890625 C9.89467346 46.69790909 9.89872192 47.51691193 9.90289307 48.36073303 C9.84926743 55.06269522 9.20953819 61.49935662 5.9375 67.4375 C3.625 69.375 3.625 69.375 0.1875 70.1875 C-3.64346041 69.31377219 -4.01214671 69.14357968 -6.06054688 66.08447266 C-9.23808833 60.63758173 -9.06071593 55.37666572 -8.96875 49.2109375 C-8.96879028 48.06009674 -8.96883057 46.90925598 -8.96887207 45.72354126 C-8.96353121 43.30131541 -8.94601045 40.87908916 -8.91699219 38.45703125 C-8.87505289 34.75466896 -8.8759359 31.05412293 -8.8828125 27.3515625 C-8.87232197 24.99217489 -8.85938462 22.63279663 -8.84375 20.2734375 C-8.84354858 19.17019135 -8.84334717 18.06694519 -8.84313965 16.93026733 C-8.73619821 9.97535115 -8.49017816 0.94335313 0 0 Z " fill="#29588D" transform="translate(575.375,285.625)"/>
<path d="M0 0 C4.71398046 4.08544973 9.34778953 8.1484509 10.05078125 14.63671875 C10.2347749 20.8053478 9.53150738 25.40336538 5.8125 30.4375 C1.79476719 34.54471461 -1.55235505 37.567395 -7.4375 37.6875 C-12.57995005 37.59699288 -16.07264016 36.53714503 -19.81640625 32.8203125 C-24.94055049 27.06645415 -26.66575937 23.02778303 -26.5 15.2578125 C-25.86373906 9.51555754 -23.47667266 5.32106498 -19.1875 1.5 C-13.45502705 -2.44107516 -6.28108635 -3.0789639 0 0 Z " fill="#27568C" transform="translate(1000.1875,165.5625)"/>
<path d="M0 0 C5.52624901 2.98688035 8.72847742 7.28063504 10.76171875 13.18359375 C11.80445843 19.14474274 11.03566569 24.17461413 8.03125 29.4296875 C4.94043442 33.6997681 0.90525062 36.83647826 -4.23828125 38.18359375 C-8.95114896 38.63243829 -11.20329026 38.71123622 -15.42578125 36.55859375 C-21.1275818 31.74373996 -24.59410536 27.354411 -25.52734375 19.86328125 C-25.84861909 14.33396357 -25.1169348 10.46542484 -21.84375 5.9453125 C-15.87609825 -0.6031326 -8.54392511 -3.11637059 0 0 Z " fill="#26568C" transform="translate(1118.23828125,64.81640625)"/>
<path d="M0 0 C4.36875506 2.93972303 7.31336623 6.70544964 9.3125 11.5625 C10.35801812 17.67131302 10.3710116 23.54047734 7.3125 29.0625 C3.88454318 33.60743152 -0.29522222 36.90272825 -5.95703125 38.00390625 C-11.63317399 38.30366847 -15.123927 36.87332747 -19.6875 33.5625 C-25.45413023 27.48416002 -26.14165259 21.80027957 -26.00390625 13.6640625 C-25.45631776 8.29634327 -23.05777577 5.79574819 -19.1875 2.3125 C-12.81129357 -2.1508445 -7.32818555 -2.8567503 0 0 Z " fill="#26568C" transform="translate(882.6875,82.4375)"/>
<path d="M0 0 C5.06403025 2.82398662 8.64094598 6.70343543 10.69140625 12.15234375 C11.71091855 18.40665959 10.84529323 23.60585286 7.69140625 29.15234375 C4.16939626 33.21620143 1.29515432 35.8404742 -4.11328125 36.48828125 C-10.3473364 36.56759493 -14.51177461 36.58940146 -19.30859375 32.15234375 C-24.47913662 26.6945485 -25.86116932 21.05297973 -25.68359375 13.68359375 C-24.94265979 8.68228949 -22.47845144 5.14748563 -18.8046875 1.76953125 C-13.30239651 -2.02240904 -6.1790968 -2.26880542 0 0 Z " fill="#27568C" transform="translate(758.30859375,185.84765625)"/>
<path d="M0 0 C3.73197424 1.88630113 6.13559515 4.2711903 8 8 C8.55769904 13.96308973 8.50156448 18.92876868 5 24 C1.5543453 27.47749994 -0.95990675 28.50972099 -5.8828125 28.546875 C-6.58148437 28.53140625 -7.28015625 28.5159375 -8 28.5 C-8.69867187 28.51546875 -9.39734375 28.5309375 -10.1171875 28.546875 C-13.64084226 28.52028138 -15.8376628 28.09704941 -18.875 26.28125 C-23.19205769 21.64676159 -23.54364178 16.85449146 -23.4609375 10.734375 C-22.72365206 6.36064784 -20.35665896 3.76533044 -17 1 C-12.10097708 -1.44951146 -5.34465961 -0.61001874 0 0 Z " fill="#FCFCFD" transform="translate(710,245)"/>
<path d="M0 0 C0.66 0 1.32 0 2 0 C4.00000448 6.0669061 5.99312741 12.13604098 7.98144531 18.20678711 C8.65889153 20.27241349 9.33792091 22.33752135 10.01855469 24.40209961 C10.99569101 27.3669819 11.96714892 30.33367243 12.9375 33.30078125 C13.24373291 34.2258699 13.54996582 35.15095856 13.86547852 36.1040802 C14.14576904 36.96474594 14.42605957 37.82541168 14.71484375 38.7121582 C14.96355225 39.46938675 15.21226074 40.2266153 15.46850586 41.00679016 C16 43 16 43 16 46 C6.1 46 -3.8 46 -14 46 C-11.75 35.875 -11.75 35.875 -10.67138672 32.58178711 C-10.43128876 31.84169907 -10.1911908 31.10161102 -9.94381714 30.33909607 C-9.69165436 29.5762178 -9.43949158 28.81333954 -9.1796875 28.02734375 C-8.91616486 27.21882462 -8.65264221 26.41030548 -8.38113403 25.57728577 C-7.5496985 23.02938146 -6.7124609 20.48342939 -5.875 17.9375 C-5.30560253 16.19609005 -4.73658862 14.45455464 -4.16796875 12.71289062 C-2.78307019 8.47379889 -1.39296966 4.23644607 0 0 Z " fill="#2B598E" transform="translate(987,263)"/>
<path d="M0 0 C-0.33 0.99 -0.66 1.98 -1 3 C-4.5625 4.6875 -4.5625 4.6875 -8 6 C-8 8.31 -8 10.62 -8 13 C-6.68 13 -5.36 13 -4 13 C-2.40218466 16.19563068 -2.63158089 19.5234633 -3 23 C-4.78483689 27.13330649 -7.05416187 29.82576266 -11 32 C-15.7625372 32.72240733 -20.68188901 33.18084225 -25.078125 30.94140625 C-28.15613844 28.42371079 -29.85380893 26.3762845 -30.2734375 22.42578125 C-30.46727986 16.48376741 -30.56310354 12.01431021 -26.5390625 7.39453125 C-19.07077758 0.62758273 -9.71496222 -0.35981342 0 0 Z " fill="#FAFAFC" transform="translate(231,282)"/>
<path d="M0 0 C0.08774066 3.20815845 0.14063706 6.41600462 0.1875 9.625 C0.21263672 10.52863281 0.23777344 11.43226563 0.26367188 12.36328125 C0.32180383 17.67266633 0.04425399 21.43361901 -3 26 C-5.1875 27.375 -5.1875 27.375 -7 28 C-10.34821027 24.65178973 -9.41009528 20.23363883 -9.4375 15.6875 C-9.47037109 14.73681641 -9.50324219 13.78613281 -9.53710938 12.80664062 C-9.57328046 8.10111168 -9.53239217 5.74060044 -6.72265625 1.83203125 C-4 0 -4 0 0 0 Z " fill="#27568C" transform="translate(236,324)"/>
</svg>
