<?xml version="1.0" encoding="UTF-8"?>
<svg version="1.1" xmlns="http://www.w3.org/2000/svg" width="1500" height="1500">
<path d="M0 0 C495 0 990 0 1500 0 C1500 495 1500 990 1500 1500 C1005 1500 510 1500 0 1500 C0 1005 0 510 0 0 Z " fill="#25548B" transform="translate(0,0)"/>
<path d="M0 0 C495 0 990 0 1500 0 C1500 495 1500 990 1500 1500 C1005 1500 510 1500 0 1500 C0 1005 0 510 0 0 Z M150 150 C150 546 150 942 150 1350 C546 1350 942 1350 1350 1350 C1350 954 1350 558 1350 150 C954 150 558 150 150 150 Z " fill="#25548B" transform="translate(0,0)"/>
<path d="M0 0 C396 0 792 0 1200 0 C1200 396 1200 792 1200 1200 C804 1200 408 1200 0 1200 C0 804 0 408 0 0 Z M36 36 C36 408.24 36 780.48 36 1164 C408.24 1164 780.48 1164 1164 1164 C1164 791.76 1164 419.52 1164 36 C791.76 36 419.52 36 36 36 Z " fill="#FFFFFF" transform="translate(150,150)"/>
<path d="M0 0 C7.54733212 4.22291202 13.53919937 10.41395718 16.6875 18.5625 C19.21651992 29.4063552 17.71033185 38.6626177 12.6875 48.5625 C8.58935164 55.06181698 2.6888225 58.73580929 -4.1875 61.875 C-13.10034213 63.83582527 -20.01922905 62.09423516 -28.3125 58.5625 C-35.77937794 65.47397811 -43.21283103 72.38806786 -50.35546875 79.63671875 C-52.1982836 81.45010742 -54.09410293 83.13752858 -56.0625 84.8125 C-59.83982438 88.04588967 -63.31932176 91.52950779 -66.8125 95.0625 C-70.81636632 99.11184542 -74.85831595 102.99467256 -79.20703125 106.67578125 C-82.65223072 109.76303792 -85.8706502 113.07986333 -89.10180664 116.38891602 C-91.1804243 118.50328301 -93.09567418 120.4259255 -95.61328125 122.01171875 C-98.21592607 124.3870061 -97.97443407 126.68608817 -98.25 130.125 C-99.346549 139.29441838 -102.32523961 146.76690357 -109.24609375 153.08984375 C-117.93448351 159.28175857 -127.86227612 159.63753731 -138.0625 157.9375 C-146.93229769 154.18489329 -152.48231375 147.97046886 -156.34765625 139.21875 C-158.10260362 134.19062172 -158.2078384 130.69758353 -157.5 125.4375 C-157.33069748 120.51021288 -158.42549518 118.04130273 -161.58203125 114.421875 C-165.61817395 110.23571299 -169.9127034 106.36049459 -174.3125 102.5625 C-179.33602834 98.22271663 -184.17268789 93.811164 -188.8125 89.0625 C-192.80915717 85.01547682 -196.84982722 81.13960877 -201.19140625 77.4609375 C-206.1111888 73.05759621 -210.68019278 68.26429183 -215.3125 63.5625 C-217.43901583 65.636401 -219.30477478 67.55134135 -221 70 C-224.9859676 74.41688301 -231.45197144 78.31220375 -237.4375 78.8359375 C-247.00015339 79.08657156 -254.04876671 78.16114064 -261.4765625 71.671875 C-263.16252307 70.0194993 -264.74187266 68.32267576 -266.3125 66.5625 C-271.61281884 71.03399106 -276.71066095 75.67484834 -281.75 80.4375 C-282.81831055 81.44103516 -282.81831055 81.44103516 -283.90820312 82.46484375 C-288.1833531 86.49536661 -292.37505646 90.59386808 -296.49731445 94.78076172 C-298.29137798 96.54176718 -300.14632754 98.18609537 -302.0625 99.8125 C-305.65766639 102.89811524 -308.98589024 106.19446297 -312.3125 109.5625 C-315.63910976 112.93053703 -318.96733361 116.22688476 -322.5625 119.3125 C-323.47902344 120.11300781 -323.47902344 120.11300781 -324.4140625 120.9296875 C-325.80492049 122.12593985 -327.22011315 123.29405441 -328.6484375 124.4453125 C-330.87398313 126.38222081 -332.69211612 128.09488683 -334.3125 130.5625 C-334.37709234 132.9847128 -333.82069428 134.72545939 -333.0546875 137.01953125 C-330.42439747 146.03173551 -332.1859415 155.33509365 -336.3125 163.5625 C-340.10502103 170.20229365 -345.8257284 175.73357613 -353.2109375 178.1953125 C-363.47877941 179.98932205 -371.72027545 178.52420086 -380.3125 172.5625 C-387.27812162 166.57730957 -391.60355237 159.55901534 -392.6875 150.390625 C-393.10450431 139.28788515 -389.40644568 130.07198071 -382.3125 121.5625 C-376.19362816 115.8474737 -370.16478371 113.10593259 -361.74609375 113.3046875 C-355.07250423 114.01168093 -349.2255534 116.50756503 -343.3125 119.5625 C-331.10061186 108.15829093 -331.10061186 108.15829093 -319.20703125 96.42578125 C-317.34470565 94.59417442 -315.42177477 92.88546658 -313.4375 91.1875 C-310.06692235 88.30035181 -306.92746479 85.22002622 -303.8125 82.0625 C-300.75912714 78.96757759 -297.68926268 75.94315683 -294.375 73.125 C-290.2202411 69.58830441 -286.41992992 65.7262018 -282.61157227 61.82446289 C-280.33166713 59.50509859 -278.1689696 57.46357504 -275.484375 55.61328125 C-273.01987177 53.69148589 -273.01987177 53.69148589 -272.74609375 50.4609375 C-272.74738281 49.29820312 -272.74867188 48.13546875 -272.75 46.9375 C-272.35926454 37.02515843 -269.32936825 28.74863481 -262.3125 21.5625 C-253.60390004 14.71789832 -246.17832286 13.77043283 -235.3125 14.5625 C-226.98652695 16.63806308 -220.73911905 22.07974004 -216 29.0625 C-213.54876253 33.28548683 -212.97510771 36.65684333 -212.625 41.5 C-211.7019202 50.25498364 -206.70362986 54.26275161 -200.3125 59.5625 C-199.01913916 60.68555187 -197.72727157 61.81032784 -196.4375 62.9375 C-195.81101562 63.47117187 -195.18453125 64.00484375 -194.5390625 64.5546875 C-191.51668197 67.2801324 -188.67331759 70.16915926 -185.8125 73.0625 C-181.80398159 77.11653742 -177.75792111 81.00413648 -173.40234375 84.6875 C-170.5839389 87.2161623 -167.96278748 89.92220721 -165.3125 92.625 C-160.92327324 97.0915578 -156.4782538 100.98620891 -151.3125 104.5625 C-150.91160156 104.17578125 -150.51070312 103.7890625 -150.09765625 103.390625 C-142.3949691 96.33419505 -135.42749045 93.71306726 -124.8828125 94.0546875 C-115.76313856 95.35179649 -109.04163957 99.87830826 -103.421875 107.0234375 C-103.05578125 107.53132812 -102.6896875 108.03921875 -102.3125 108.5625 C-92.61711778 100.44543582 -83.44370115 91.7763127 -74.5625 82.78125 C-72.59952375 80.84553731 -70.59928719 79.03439412 -68.5 77.25 C-64.12840752 73.5168551 -60.14396984 69.4236935 -56.1081543 65.33642578 C-52.53143853 61.73096248 -48.84434896 58.34690589 -44.96875 55.0625 C-42.44769247 52.77927809 -40.40272754 50.24060403 -38.3125 47.5625 C-38.9621875 46.42683594 -39.611875 45.29117188 -40.28125 44.12109375 C-42.56338705 39.53968347 -42.93656936 35.68595096 -42.8125 30.625 C-42.79437256 29.43704834 -42.79437256 29.43704834 -42.77587891 28.22509766 C-42.57316956 22.26298589 -41.66079613 17.59540762 -38.3125 12.5625 C-37.9 11.87027344 -37.4875 11.17804687 -37.0625 10.46484375 C-28.88260262 -1.96767074 -13.46282883 -6.20043771 0 0 Z " fill="#FAFBFC" transform="translate(1256.3125,664.4375)"/>
<path d="M0 0 C13.53 0 27.06 0 41 0 C44.75 15.625 44.75 15.625 45.90527344 20.45947266 C47.80141016 28.3440408 49.85901384 36.14556379 52.12939453 43.93164062 C53.45084869 48.58896982 54.49609346 53.29344502 55.50976562 58.02539062 C56.5433609 62.63513834 58.02347055 66.70538784 60 71 C63.45870349 58.67073934 66.29486031 46.21234918 69.14404297 33.73095703 C70.70176205 26.94115013 72.2895229 20.15837247 73.875 13.375 C74.90625 8.96125 75.9375 4.5475 77 0 C90.53 0 104.06 0 118 0 C118 1.32 118 2.64 118 4 C115.36 4 112.72 4 110 4 C110 36.34 110 68.68 110 102 C112.64 102 115.28 102 118 102 C118 102.99 118 103.98 118 105 C102.82 105 87.64 105 72 105 C72 104.01 72 103.02 72 102 C74.64 102 77.28 102 80 102 C79.67 72.96 79.34 43.92 79 14 C76.36 25.88 73.72 37.76 71 50 C69.44292046 56.54999026 67.87836932 63.09320929 66.25 69.625 C65.52330558 72.55401675 64.79939101 75.48370432 64.078125 78.4140625 C63.9068811 79.10937073 63.73563721 79.80467896 63.5592041 80.52105713 C61.57278992 88.65130468 59.79159227 96.82485149 58 105 C51.4 105 44.8 105 38 105 C34.82474947 93.64607387 31.71806157 82.27620084 28.66015625 70.89013672 C25.80232878 60.25215231 22.90494585 49.62519601 20 39 C18.89527582 34.95848541 17.79122887 30.9167865 16.6875 26.875 C16.43282959 25.94397461 16.17815918 25.01294922 15.91577148 24.05371094 C15.67930908 23.1877832 15.44284668 22.32185547 15.19921875 21.4296875 C14.99127686 20.66897949 14.78333496 19.90827148 14.5690918 19.12451172 C14.02379789 17.08884137 13.51112904 15.04451616 13 13 C12.67 42.37 12.34 71.74 12 102 C14.64 102 17.28 102 20 102 C20 102.99 20 103.98 20 105 C13.4 105 6.8 105 0 105 C0 104.01 0 103.02 0 102 C2.64 102 5.28 102 8 102 C8 69.33 8 36.66 8 3 C5.36 3 2.72 3 0 3 C0 2.01 0 1.02 0 0 Z " fill="#FBFCFD" transform="translate(562,855)"/>
<path d="M0 0 C1.12591553 0.00523682 2.25183105 0.01047363 3.41186523 0.01586914 C4.62680664 0.0190918 5.84174805 0.02231445 7.09350586 0.02563477 C8.37290039 0.03401367 9.65229492 0.04239258 10.97045898 0.05102539 C12.2537207 0.05553711 13.53698242 0.06004883 14.85913086 0.06469727 C18.04211921 0.07652994 21.22501661 0.09301471 24.40795898 0.11352539 C30.24999826 14.73255338 35.54084387 29.53394408 40.78897476 44.37483597 C42.63973691 49.60594531 44.4963933 54.83496891 46.35202599 60.06435204 C46.81590877 61.37179708 47.27967575 62.67928322 47.74332619 63.98681068 C50.77068711 72.52411545 53.81675617 81.05439756 56.89233398 89.57446289 C57.22595444 90.49932999 57.55957489 91.42419708 57.90330505 92.37709045 C59.43015979 96.60802726 60.96068604 100.83758966 62.49609375 105.06542969 C63.02542245 106.53063945 63.55464532 107.99588745 64.08374023 109.46118164 C64.44305634 110.44427811 64.44305634 110.44427811 64.80963135 111.44723511 C66.40795898 115.88658974 66.40795898 115.88658974 66.40795898 118.11352539 C57.82795898 118.11352539 49.24795898 118.11352539 40.40795898 118.11352539 C39.08795898 114.38040039 37.76795898 110.64727539 36.40795898 106.80102539 C35.99030273 105.62757568 35.57264648 104.45412598 35.14233398 103.24511719 C34.81749023 102.31868408 34.49264648 101.39225098 34.15795898 100.43774414 C33.65522461 99.01594849 33.65522461 99.01594849 33.14233398 97.56542969 C32.40795898 95.11352539 32.40795898 95.11352539 32.40795898 92.11352539 C18.21795898 92.11352539 4.02795898 92.11352539 -10.59204102 92.11352539 C-11.25204102 95.08352539 -11.91204102 98.05352539 -12.59204102 101.11352539 C-13.05722146 102.65784854 -13.5505867 104.19472762 -14.09985352 105.71118164 C-14.33849121 106.37899658 -14.57712891 107.04681152 -14.82299805 107.73486328 C-15.11803223 108.54044678 -15.41306641 109.34603027 -15.71704102 110.17602539 C-16.66579102 112.79540039 -17.61454102 115.41477539 -18.59204102 118.11352539 C-27.17204102 118.11352539 -35.75204102 118.11352539 -44.59204102 118.11352539 C-41.21721107 105.73914893 -41.21721107 105.73914893 -39.37817383 100.65625 C-38.96584503 99.5099411 -38.55351624 98.3636322 -38.12869263 97.18258667 C-37.68862885 95.97256989 -37.24856506 94.7625531 -36.79516602 93.51586914 C-36.32381749 92.20994944 -35.85287019 90.90388486 -35.3822937 89.59768677 C-34.13130144 86.12830483 -32.87530447 82.6607556 -31.61826324 79.19356155 C-30.31734788 75.60276227 -29.02090287 72.01035056 -27.72436523 68.41796875 C-27.20309918 66.97376844 -26.68182843 65.52956984 -26.16055298 64.08537292 C-25.90294819 63.37165213 -25.6453434 62.65793133 -25.3799324 61.92258263 C-24.60051918 59.76380662 -23.82051228 57.60524592 -23.04037476 55.44673157 C-19.92895733 46.83557317 -16.83753775 38.21761635 -13.77172852 29.59008789 C-13.23986938 28.09424919 -13.23986938 28.09424919 -12.69726562 26.56819153 C-11.38457156 22.87472555 -10.07249088 19.18105474 -8.76550293 15.48556519 C-7.90013265 13.03909727 -7.03154535 10.59379382 -6.16235352 8.14868164 C-5.91242645 7.43833771 -5.66249939 6.72799377 -5.40499878 5.99612427 C-3.32013321 0.14541414 -3.32013321 0.14541414 0 0 Z " fill="#FCFDFD" transform="translate(1114.592041015625,841.886474609375)"/>
<path d="M0 0 C0.83708496 0.00563965 1.67416992 0.0112793 2.53662109 0.01708984 C12.61757232 0.21514004 20.91108657 2.52779603 28.625 9.3125 C37.74273799 19.85549468 37.49979434 32.44331132 36.85888672 45.70166016 C36.09098619 54.27361027 32.5516124 61.96468959 26.00390625 67.65625 C14.41106051 75.72745951 1.26152652 75.60020437 -12.375 74.3125 C-21.06179941 72.72969625 -27.58841176 68.30654622 -32.90625 61.29296875 C-39.96923117 50.55477353 -40.25038574 36.63185739 -37.98828125 24.18457031 C-35.54287716 15.16102923 -29.77429165 9.16700501 -21.9375 4.5 C-14.99353876 0.63931567 -7.77911551 -0.05485977 0 0 Z " fill="#FBFBFC" transform="translate(911.375,886.6875)"/>
<path d="M0 0 C0.83708496 0.00563965 1.67416992 0.0112793 2.53662109 0.01708984 C12.61757232 0.21514004 20.91108657 2.52779603 28.625 9.3125 C37.74273799 19.85549468 37.49979434 32.44331132 36.85888672 45.70166016 C36.09098619 54.27361027 32.5516124 61.96468959 26.00390625 67.65625 C14.41106051 75.72745951 1.26152652 75.60020437 -12.375 74.3125 C-21.06179941 72.72969625 -27.58841176 68.30654622 -32.90625 61.29296875 C-39.96923117 50.55477353 -40.25038574 36.63185739 -37.98828125 24.18457031 C-35.54287716 15.16102923 -29.77429165 9.16700501 -21.9375 4.5 C-14.99353876 0.63931567 -7.77911551 -0.05485977 0 0 Z " fill="#FBFBFC" transform="translate(724.375,886.6875)"/>
<path d="M0 0 C14.85 0 29.7 0 45 0 C45.495 1.98 45.495 1.98 46 4 C43.03 4 40.06 4 37 4 C37.27972656 4.92554688 37.55945313 5.85109375 37.84765625 6.8046875 C40.62773274 16.08497677 43.25639358 25.40564158 45.8125 34.75 C46.12646729 35.88034668 46.44043457 37.01069336 46.76391602 38.17529297 C47.19982056 39.78235107 47.19982056 39.78235107 47.64453125 41.421875 C47.90596924 42.37674805 48.16740723 43.33162109 48.43676758 44.31542969 C48.99203845 46.96205234 49.10612245 49.3050403 49 52 C49.66 52 50.32 52 51 52 C51.1546875 50.29263672 51.1546875 50.29263672 51.3125 48.55078125 C51.90214325 43.83052096 53.37450363 39.63700878 55 35.1875 C58.28667366 25.7334685 60.36385013 17.69580331 57 8 C57 6.68 57 5.36 57 4 C55.02 4 53.04 4 51 4 C51 2.68 51 1.36 51 0 C63.87 0 76.74 0 90 0 C90 1.32 90 2.64 90 4 C88.35 4 86.7 4 85 4 C88.6788796 19.09996723 92.61961542 34.08805251 97 49 C98.96892144 43.44014088 100.40916031 37.76976964 101.875 32.0625 C102.40592671 30.010333 102.93717752 27.95824982 103.46875 25.90625 C103.72785156 24.90464844 103.98695313 23.90304687 104.25390625 22.87109375 C105.80412152 16.90560567 107.40133921 10.95266046 109 5 C106.03 4.67 103.06 4.34 100 4 C100 2.68 100 1.36 100 0 C106.93 0 113.86 0 121 0 C121 1.32 121 2.64 121 4 C118.69 4 116.38 4 114 4 C113.63648438 5.81371094 113.63648438 5.81371094 113.265625 7.6640625 C111.54400946 16.12439935 109.68031334 24.44163066 107.20703125 32.71875 C105.058612 40.12787273 103.30870958 47.65199525 101.46166992 55.14038086 C101.17267822 56.30964111 100.88368652 57.47890137 100.5859375 58.68359375 C100.3286084 59.73087646 100.0712793 60.77815918 99.80615234 61.85717773 C98.93455954 65.25512267 97.96370761 68.62702335 97 72 C89.74 72 82.48 72 75 72 C70.9837561 57.67115288 66.97432478 43.34053596 63 29 C59.33034119 39.80219027 55.70624779 50.60028517 52.59887695 61.57983398 C51.57371013 65.1784982 50.39685018 68.50787456 49 72 C42.07 72 35.14 72 28 72 C25.81218002 65.17243316 23.62512015 58.34462344 21.4387207 51.51660156 C20.69706029 49.20078179 19.95520334 46.88502495 19.21313477 44.56933594 C16.80300843 37.04805161 14.39838478 29.52503666 12 22 C11.7192865 21.12085938 11.438573 20.24171875 11.14935303 19.3359375 C10.42318416 17.05829232 9.7009323 14.77945516 8.98046875 12.5 C8.59141357 11.2728125 8.2023584 10.045625 7.80151367 8.78125 C7 6 7 6 7 4 C4.69 4 2.38 4 0 4 C0 2.68 0 1.36 0 0 Z " fill="#F9FAFB" transform="translate(435,888)"/>
<path d="M0 0 C4.78235435 4.07008881 7.46089436 9.23807877 8.37295532 15.48028564 C8.51231123 18.76144 8.5007901 22.00585563 8.42578125 25.2890625 C8.41870651 26.47349945 8.41163177 27.6579364 8.40434265 28.87826538 C8.37655573 32.62784401 8.3138425 36.37587958 8.25 40.125 C8.22489703 42.68096788 8.20208739 45.23695938 8.18164062 47.79296875 C8.12678044 54.02916429 8.04331136 60.26447186 7.9375 66.5 C10.9075 66.5 13.8775 66.5 16.9375 66.5 C16.9375 67.49 16.9375 68.48 16.9375 69.5 C2.7475 69.5 -11.4425 69.5 -26.0625 69.5 C-26.0625 68.51 -26.0625 67.52 -26.0625 66.5 C-24.0825 66.5 -22.1025 66.5 -20.0625 66.5 C-20.14686121 58.98938348 -20.24172804 51.47896215 -20.35002708 43.96865368 C-20.39998374 40.48134023 -20.4463136 36.99405697 -20.484375 33.5065918 C-20.52828584 29.49768923 -20.5879346 25.48915548 -20.6484375 21.48046875 C-20.65998871 20.22727341 -20.67153992 18.97407806 -20.68344116 17.6829071 C-20.70331085 16.52193008 -20.72318054 15.36095306 -20.74365234 14.16479492 C-20.75697601 13.14109299 -20.77029968 12.11739105 -20.7840271 11.06266785 C-20.88910412 8.26006168 -20.88910412 8.26006168 -23.0625 5.5 C-26.4259269 5.52649222 -26.4259269 5.52649222 -30.0625 6.5 C-36.23849389 13.51058766 -36.37329303 21.59676918 -36.4765625 30.46484375 C-36.49592865 31.49815323 -36.5152948 32.53146271 -36.5352478 33.59608459 C-36.59473299 36.87647405 -36.64130452 40.15689918 -36.6875 43.4375 C-36.72570836 45.66993666 -36.76476174 47.90235902 -36.8046875 50.13476562 C-36.9004088 55.58971631 -36.9855461 61.04475401 -37.0625 66.5 C-35.0825 66.5 -33.1025 66.5 -31.0625 66.5 C-31.0625 67.49 -31.0625 68.48 -31.0625 69.5 C-44.9225 69.5 -58.7825 69.5 -73.0625 69.5 C-73.0625 68.51 -73.0625 67.52 -73.0625 66.5 C-70.4225 66.5 -67.7825 66.5 -65.0625 66.5 C-65.0625 45.05 -65.0625 23.6 -65.0625 1.5 C-68.0325 1.5 -71.0025 1.5 -74.0625 1.5 C-74.0625 0.18 -74.0625 -1.14 -74.0625 -2.5 C-61.8525 -2.5 -49.6425 -2.5 -37.0625 -2.5 C-36.5675 2.45 -36.5675 2.45 -36.0625 7.5 C-35.4025 6.4275 -34.7425 5.355 -34.0625 4.25 C-26.01454908 -6.74069198 -11.22292946 -5.49694504 0 0 Z " fill="#FDFDFE" transform="translate(1026.0625,890.5)"/>
<path d="M0 0 C0.89074219 -0.020625 1.78148437 -0.04125 2.69921875 -0.0625 C11.38331142 -0.11291563 19.83867565 1.28858261 26.34765625 7.4453125 C31.92481763 14.62260653 31.89447901 24.90358619 32.06640625 33.5859375 C32.08718735 34.46528961 32.10796844 35.34464172 32.12937927 36.25064087 C32.19442963 39.04201931 32.25355148 41.83348671 32.3125 44.625 C32.35572762 46.52474855 32.39934323 48.42448831 32.44335938 50.32421875 C32.55006501 54.96605614 32.65145615 59.60798246 32.75 64.25 C34.73 64.745 34.73 64.745 36.75 65.25 C38.61540627 60.54593201 40.11843005 56.30255964 40.75 51.25 C41.74 51.25 42.73 51.25 43.75 51.25 C44.16643458 57.63533026 43.60364987 64.90932721 39.28515625 69.96484375 C34.28152396 74.18551158 30.45424341 74.48654908 24.125 74.5625 C22.95130859 74.60600586 22.95130859 74.60600586 21.75390625 74.65039062 C16.03485616 74.71203876 11.45019708 73.64735342 6.75 70.25 C5.25 67.5 5.25 67.5 4.75 65.25 C4.09 65.25 3.43 65.25 2.75 65.25 C2.5025 66.013125 2.255 66.77625 2 67.5625 C0.61694005 70.53607889 -0.48004483 71.57123929 -3.25 73.25 C-7.03783015 74.51261005 -10.61521826 74.47317056 -14.5625 74.5 C-15.30951172 74.520625 -16.05652344 74.54125 -16.82617188 74.5625 C-22.42782285 74.60184434 -26.64422098 73.68247305 -30.89453125 69.71484375 C-35.85137238 63.23282073 -35.95052723 58.3504628 -35.25 50.25 C-32.98695014 45.28869839 -29.99530221 42.85526396 -25.25 40.25 C-18.0134237 37.70379723 -11.07206216 37.19797216 -3.4765625 37.2265625 C-2.30947754 37.22994629 -1.14239258 37.23333008 0.06005859 37.23681641 C0.94773926 37.24116699 1.83541992 37.24551758 2.75 37.25 C2.66886808 32.87425544 2.5560422 28.49987835 2.4375 24.125 C2.40366211 22.26875 2.40366211 22.26875 2.36914062 20.375 C2.33369141 19.17617188 2.29824219 17.97734375 2.26171875 16.7421875 C2.22244263 15.09259033 2.22244263 15.09259033 2.18237305 13.40966797 C1.69543065 9.85122158 0.50922566 7.3588528 -1.25 4.25 C-5.39093698 4.04029441 -5.39093698 4.04029441 -9.25 5.25 C-9.65729228 7.57156597 -9.99438677 9.9068787 -10.25 12.25 C-8.93 12.25 -7.61 12.25 -6.25 12.25 C-4.52267364 15.70465272 -4.89584318 19.46576878 -5.25 23.25 C-6.5839491 26.65898103 -7.79764035 27.92203925 -10.75 30.0625 C-15.63736579 31.72071339 -20.1449328 32.10472967 -25.25 31.25 C-28.14683868 29.0484026 -29.64297231 27.46405538 -31.25 24.25 C-31.65590828 19.40251839 -31.9225912 14.83058932 -30 10.3125 C-29.4225 9.631875 -28.845 8.95125 -28.25 8.25 C-27.693125 7.54875 -27.13625 6.8475 -26.5625 6.125 C-19.07968265 0.0578508 -9.19628096 0.05232592 0 0 Z " fill="#FAFBFC" transform="translate(390.25,886.75)"/>
<path d="M0 0 C17.82 0 35.64 0 54 0 C54 1.32 54 2.64 54 4 C48.72 4 43.44 4 38 4 C38 36.01 38 68.02 38 101 C55.10773462 99.12780974 55.10773462 99.12780974 66.5625 89 C70.93136316 83.02101592 74.44853262 76.48488718 78 70 C79.32 70 80.64 70 82 70 C81.85455533 72.64585516 81.70864157 75.2916833 81.5625 77.9375 C81.52318359 78.65357422 81.48386719 79.36964844 81.44335938 80.10742188 C80.98426887 88.40636567 80.4880877 96.70250909 80 105 C53.6 105 27.2 105 0 105 C0 103.68 0 102.36 0 101 C2.97 101 5.94 101 9 101 C9 68.99 9 36.98 9 4 C6.03 4 3.06 4 0 4 C0 2.68 0 1.36 0 0 Z " fill="#FEFEFE" transform="translate(266,855)"/>
<path d="M0 0 C0.33 0 0.66 0 1 0 C1 384.12 1 768.24 1 1164 C12.55 1164 24.1 1164 36 1164 C36 1175.88 36 1187.76 36 1200 C24.12 1200 12.24 1200 0 1200 C0 1188.45 0 1176.9 0 1165 C-384.12 1165 -768.24 1165 -1164 1165 C-1164 1164.67 -1164 1164.34 -1164 1164 C-779.88 1164 -395.76 1164 0 1164 C0 779.88 0 395.76 0 0 Z " fill="#A9BBD1" transform="translate(1314,150)"/>
<path d="M0 0 C8.25 0 16.5 0 25 0 C25 38.94 25 77.88 25 118 C16.75 118 8.5 118 0 118 C0 79.06 0 40.12 0 0 Z " fill="#FEFEFE" transform="translate(1195,842)"/>
<path d="M0 0 C0 8.25 0 16.5 0 25 C6.27 25 12.54 25 19 25 C19 26.32 19 27.64 19 29 C12.73 29 6.46 29 0 29 C0.09355283 36.88391779 0.19965242 44.76752916 0.31738281 52.65112305 C0.35674536 55.3330514 0.39134236 58.01497842 0.421875 60.69702148 C0.46753953 64.55210682 0.52553299 68.40683969 0.5859375 72.26171875 C0.59748871 73.46084396 0.60903992 74.65996918 0.62094116 75.89543152 C0.64081085 77.01621597 0.66068054 78.13700043 0.68115234 79.29174805 C0.69447601 80.27547897 0.70779968 81.2592099 0.7215271 82.27275085 C1.04556517 85.44624652 1.66914369 88.66914369 4 91 C7.57312635 90.79774756 10.20507745 90.50786718 13.25 88.5625 C15.49844791 85.27012985 16.23301759 82.01216439 17.09375 78.14453125 C17.54234375 77.08298828 17.54234375 77.08298828 18 76 C20.09375 75.19921875 20.09375 75.19921875 22 75 C21.52374343 81.66759198 20.26971588 87.53743224 15.54296875 92.54296875 C9.61470019 97.66079047 5.29480892 98.34156321 -2.25 98.3125 C-3.07113281 98.32861328 -3.89226563 98.34472656 -4.73828125 98.36132812 C-11.63094117 98.36678982 -16.88817124 96.93624901 -22.8125 93.25 C-28.97265754 86.91383796 -28.40350804 79.61586474 -28.29296875 71.28515625 C-28.28872391 70.07427841 -28.28447906 68.86340057 -28.28010559 67.61582947 C-28.26336989 63.76448943 -28.22572572 59.91368077 -28.1875 56.0625 C-28.17244662 53.44466904 -28.15875936 50.82682984 -28.14648438 48.20898438 C-28.11348299 41.80580958 -28.06333386 35.40294277 -28 29 C-30.64 29 -33.28 29 -36 29 C-36 28.01 -36 27.02 -36 26 C-33.36 26 -30.72 26 -28 26 C-28 19.4 -28 12.8 -28 6 C-25.1125 5.195625 -22.225 4.39125 -19.25 3.5625 C-18.34668945 3.31056885 -17.44337891 3.0586377 -16.51269531 2.79907227 C-15.79178711 2.59854248 -15.07087891 2.3980127 -14.328125 2.19140625 C-13.5949707 1.98717041 -12.86181641 1.78293457 -12.10644531 1.57250977 C-11.41131836 1.38358154 -10.71619141 1.19465332 -10 1 C-9.37448242 0.81042725 -8.74896484 0.62085449 -8.10449219 0.42553711 C-6 0 -6 0 0 0 Z " fill="#FCFCFD" transform="translate(801,863)"/>
<path d="M0 0 C12.21 0 24.42 0 37 0 C37 22.44 37 44.88 37 68 C39.64 68 42.28 68 45 68 C45 68.99 45 69.98 45 71 C30.15 71 15.3 71 0 71 C0 70.01 0 69.02 0 68 C2.64 68 5.28 68 8 68 C8 46.55 8 25.1 8 3 C5.36 3 2.72 3 0 3 C0 2.01 0 1.02 0 0 Z " fill="#FAFBFC" transform="translate(824,889)"/>
<path d="M0 0 C11.55 0 23.1 0 35 0 C35 11.55 35 23.1 35 35 C23.45 35 11.9 35 0 35 C0 23.45 0 11.9 0 0 Z " fill="#FFFFFF" transform="translate(1315,1315)"/>
<path d="M0 0 C4.00644165 3.09726286 4.32867971 7.22291468 5 12 C5.26464533 15.56851567 5.30425802 19.11793031 5.30078125 22.6953125 C5.30506638 23.68699432 5.3093515 24.67867615 5.31376648 25.70040894 C5.31947514 27.78284953 5.32003581 29.86531005 5.31567383 31.94775391 C5.31250193 35.12306682 5.33605804 38.29745735 5.36132812 41.47265625 C5.36360037 43.50520717 5.36430496 45.53776057 5.36328125 47.5703125 C5.372491 48.51214386 5.38170074 49.45397522 5.39118958 50.42434692 C5.3519505 56.03968991 4.76291385 60.06573326 2 65 C-1.50187953 67.33458635 -2.88028047 67.67260727 -7 67 C-10.5210731 62.71761379 -12.11852894 59.07394797 -12.14526367 53.57958984 C-12.15164352 52.68791107 -12.15802338 51.7962323 -12.16459656 50.87753296 C-12.16570938 49.91505646 -12.1668222 48.95257996 -12.16796875 47.9609375 C-12.17129715 46.96550934 -12.17462555 45.97008118 -12.17805481 44.94448853 C-12.1831209 42.83457908 -12.18546323 40.72466161 -12.18530273 38.61474609 C-12.18747735 35.40839126 -12.20560363 32.20238716 -12.22460938 28.99609375 C-12.22754584 26.9427095 -12.22952894 24.88932363 -12.23046875 22.8359375 C-12.23765427 21.88560638 -12.24483978 20.93527527 -12.25224304 19.95614624 C-12.20445023 5.81088326 -12.20445023 5.81088326 -8.64543152 1.27279663 C-5.87935615 -0.86685572 -3.34985857 -0.35891342 0 0 Z " fill="#26558B" transform="translate(914,891)"/>
<path d="M0 0 C4.00644165 3.09726286 4.32867971 7.22291468 5 12 C5.26464533 15.56851567 5.30425802 19.11793031 5.30078125 22.6953125 C5.30506638 23.68699432 5.3093515 24.67867615 5.31376648 25.70040894 C5.31947514 27.78284953 5.32003581 29.86531005 5.31567383 31.94775391 C5.31250193 35.12306682 5.33605804 38.29745735 5.36132812 41.47265625 C5.36360037 43.50520717 5.36430496 45.53776057 5.36328125 47.5703125 C5.372491 48.51214386 5.38170074 49.45397522 5.39118958 50.42434692 C5.3519505 56.03968991 4.76291385 60.06573326 2 65 C-1.50187953 67.33458635 -2.88028047 67.67260727 -7 67 C-10.5210731 62.71761379 -12.11852894 59.07394797 -12.14526367 53.57958984 C-12.15164352 52.68791107 -12.15802338 51.7962323 -12.16459656 50.87753296 C-12.16570938 49.91505646 -12.1668222 48.95257996 -12.16796875 47.9609375 C-12.17129715 46.96550934 -12.17462555 45.97008118 -12.17805481 44.94448853 C-12.1831209 42.83457908 -12.18546323 40.72466161 -12.18530273 38.61474609 C-12.18747735 35.40839126 -12.20560363 32.20238716 -12.22460938 28.99609375 C-12.22754584 26.9427095 -12.22952894 24.88932363 -12.23046875 22.8359375 C-12.23765427 21.88560638 -12.24483978 20.93527527 -12.25224304 19.95614624 C-12.20445023 5.81088326 -12.20445023 5.81088326 -8.64543152 1.27279663 C-5.87935615 -0.86685572 -3.34985857 -0.35891342 0 0 Z " fill="#26558B" transform="translate(727,891)"/>
<path d="M0 0 C4.98553976 2.45458741 8.1540819 6.09394983 10.03515625 11.31640625 C11.08004654 17.6569905 11.24492683 23.45373217 7.47265625 28.87890625 C2.94900858 33.86651778 -1.15821467 36.47669635 -7.96484375 36.87890625 C-12.24250319 36.66469872 -15.13124947 35.82225311 -18.42578125 33.05859375 C-22.55771735 28.38132599 -25.20581714 22.89867524 -25.52734375 16.62890625 C-25.18378962 11.36417132 -23.19331331 7.56275123 -19.50390625 3.84375 C-13.06263259 -1.76375473 -8.06506111 -2.80593578 0 0 Z " fill="#28568C" transform="translate(1250.96484375,676.68359375)"/>
<path d="M0 0 C4.92070998 2.68922522 9.11937105 6.94851053 10.875 12.375 C11.53519776 18.86694466 10.40123184 23.83523868 6.875 29.375 C2.99061775 33.51026663 -0.52234866 36.4981491 -6.3125 36.6875 C-11.38584903 36.62224792 -14.0275255 35.34767758 -18.125 32.375 C-23.35088768 26.86663191 -24.64800058 21.59403079 -24.5078125 14.1640625 C-23.72197417 8.43866898 -20.63033907 4.77281485 -16.5 0.9375 C-11.18054409 -2.56214205 -5.72148817 -2.6065759 0 0 Z " fill="#27568C" transform="translate(1135.125,773.625)"/>
<path d="M0 0 C8.25079787 7.33404255 8.25079787 7.33404255 9.328125 13.40625 C9.55676966 19.87362764 8.73448767 25.24529808 4.8125 30.5 C2.3125 32.875 2.3125 32.875 -0.1875 34.5 C-0.785625 34.9125 -1.38375 35.325 -2 35.75 C-6.2978781 37.2235582 -10.182359 37.34637292 -14.34375 35.58984375 C-19.84127185 32.40005029 -23.14845596 28.61713212 -25.1875 22.5 C-25.67264482 16.98843667 -25.95487316 12.12328938 -23.5625 7.0625 C-16.93808181 -0.08489858 -9.60889406 -4.5218325 0 0 Z " fill="#27558C" transform="translate(1022.1875,693.5)"/>
<path d="M0 0 C4.68082618 3.42499476 8.94356921 8.04626536 9.8984375 13.953125 C10.00304952 19.76955356 8.92595458 24.07472988 5.5625 28.875 C0.35827848 33.81901044 -3.89836533 35.34087924 -10.96875 35.1953125 C-14.60079078 34.7240667 -16.68930039 33.23059967 -19.4375 30.875 C-20.18 30.25625 -20.9225 29.6375 -21.6875 29 C-25.89344587 23.89278002 -25.87607024 18.08529701 -25.75 11.71875 C-25.17209024 6.4597712 -22.62807783 4.00604894 -18.9375 0.5 C-12.82627201 -2.33735585 -6.35339738 -2.07929369 0 0 Z " fill="#28568C" transform="translate(902.4375,794.125)"/>
<path d="M0 0 C1.21171875 -0.02578125 2.4234375 -0.0515625 3.671875 -0.078125 C8.49163045 0.36386131 11.90082937 1.72093995 15.125 5.375 C17.23449802 10.76593939 16.69876236 15.5390935 15.25 21.0625 C12.59317707 25.29681155 10.02324609 26.899991 5.25 28.25 C0.55212679 28.87828699 -3.32843841 28.88516582 -7.6875 26.9375 C-11.63387338 23.70864906 -13.48725346 21.85119073 -14.0234375 16.54296875 C-14.3313639 7.12752705 -14.3313639 7.12752705 -11.375 3.5625 C-7.40235225 0.06278651 -5.25124869 0.0664715 0 0 Z " fill="#FBFBFC" transform="translate(845.75,850.75)"/>
<path d="M0 0 C2.09005858 2.09005858 2.5301794 3.11145717 3.42041016 5.85131836 C3.68052887 6.6423143 3.94064758 7.43331024 4.20864868 8.24827576 C4.48268524 9.10349319 4.7567218 9.95871063 5.0390625 10.83984375 C5.32478119 11.71774063 5.61049988 12.59563751 5.90487671 13.50013733 C6.50788619 15.35778159 7.10787445 17.21640887 7.70507812 19.07592773 C8.62098073 21.92499739 9.54801465 24.7702642 10.4765625 27.61523438 C11.06056399 29.41905465 11.64391909 31.22308435 12.2265625 33.02734375 C12.50464752 33.88053696 12.78273254 34.73373016 13.06924438 35.61277771 C13.44996597 36.80399986 13.44996597 36.80399986 13.83837891 38.01928711 C14.0632901 38.71718857 14.28820129 39.41509003 14.51992798 40.13414001 C15 42 15 42 15 45 C5.43 45 -4.14 45 -14 45 C-12.6400062 38.88002791 -11.18472233 33.13808065 -9.1796875 27.24609375 C-8.91616486 26.45977066 -8.65264221 25.67344757 -8.38113403 24.86329651 C-7.55002403 22.38657143 -6.71263545 19.91202477 -5.875 17.4375 C-5.30557042 15.74428153 -4.73655625 14.0509233 -4.16796875 12.35742188 C-2.78343627 8.23665217 -1.39327428 4.11782181 0 0 Z " fill="#2B598E" transform="translate(1125,868)"/>
<path d="M0 0 C-0.33 0.99 -0.66 1.98 -1 3 C-4.5625 4.1875 -4.5625 4.1875 -8 5 C-8.33 7.31 -8.66 9.62 -9 12 C-7.68 12 -6.36 12 -5 12 C-3.27267364 15.45465272 -3.64584318 19.21576878 -4 23 C-5.3339491 26.40898103 -6.54764035 27.67203925 -9.5 29.8125 C-14.38736579 31.47071339 -18.8949328 31.85472967 -24 31 C-26.89683868 28.7984026 -28.39297231 27.21405538 -30 24 C-30.40590828 19.15251839 -30.6725912 14.58058932 -28.75 10.0625 C-28.1725 9.381875 -27.595 8.70125 -27 8 C-26.443125 7.29875 -25.88625 6.5975 -25.3125 5.875 C-18.12069848 0.04380958 -8.86166311 -0.17723326 0 0 Z " fill="#F9FAFC" transform="translate(389,887)"/>
<path d="M0 0 C1.65 0 3.3 0 5 0 C6.18031839 3.84843308 6.33211239 7.75891143 6.5625 11.75 C6.706875 14.1425 6.85125 16.535 7 19 C7.66 12.73 8.32 6.46 9 0 C11.31 0 13.62 0 16 0 C17.15316726 6.34241995 17.09507063 12.56688704 17 19 C17.66 19 18.32 19 19 19 C18.98839844 18.21496094 18.97679687 17.42992187 18.96484375 16.62109375 C18.91624493 10.96280225 18.98705251 5.57121122 20 0 C21.65 0 23.3 0 25 0 C25.10224826 6.67340283 24.72679789 13.17423248 24.0625 19.8125 C23.97548828 20.73998047 23.88847656 21.66746094 23.79882812 22.62304688 C23.42043035 26.51073363 23.03133396 30.22383899 22 34 C19.69 34 17.38 34 15 34 C14.86722656 33.21753906 14.73445313 32.43507813 14.59765625 31.62890625 C14.42105469 30.61699219 14.24445313 29.60507813 14.0625 28.5625 C13.88847656 27.55316406 13.71445312 26.54382812 13.53515625 25.50390625 C13.25248903 23.0712562 13.25248903 23.0712562 12 22 C11.67 25.96 11.34 29.92 11 34 C8.36 34 5.72 34 3 34 C1.75238611 30.25715833 1.37096659 26.52619932 0.9375 22.625 C0.84807129 21.82658691 0.75864258 21.02817383 0.66650391 20.20556641 C-0.04403942 13.44254736 -0.21629817 6.80137593 0 0 Z " fill="#F6F8FA" transform="translate(384,1073)"/>
<path d="M0 0 C2.64 0 5.28 0 8 0 C8.99 5.61 9.98 11.22 11 17 C11.99 11.39 12.98 5.78 14 0 C16.64 0 19.28 0 22 0 C22 11.22 22 22.44 22 34 C20.35 34 18.7 34 17 34 C16.67 28.39 16.34 22.78 16 17 C15.34 22.61 14.68 28.22 14 34 C12.02 34 10.04 34 8 34 C7.34 30.04 6.68 26.08 6 22 C5.67 25.96 5.34 29.92 5 34 C3.35 34 1.7 34 0 34 C0 22.78 0 11.56 0 0 Z " fill="#F9FAFC" transform="translate(292,1073)"/>
<path d="M0 0 C0.7528125 -0.0103125 1.505625 -0.020625 2.28125 -0.03125 C5.38464412 0.7118162 6.50273488 2.03533366 8.5 4.5 C9.01757812 7.27734375 9.01757812 7.27734375 9.03125 10.4375 C9.03640625 11.57960938 9.0415625 12.72171875 9.046875 13.8984375 C9.03140625 15.08695313 9.0159375 16.27546875 9 17.5 C9.01546875 18.68851563 9.0309375 19.87703125 9.046875 21.1015625 C9.04171875 22.24367188 9.0365625 23.38578125 9.03125 24.5625 C9.02673828 25.60535156 9.02222656 26.64820313 9.01757812 27.72265625 C8.37508686 31.17028863 7.21725876 32.35209265 4.5 34.5 C2.28125 35.06640625 2.28125 35.06640625 0 35.0625 C-0.7528125 35.08441406 -1.505625 35.10632812 -2.28125 35.12890625 C-4.5 34.5 -4.5 34.5 -6.75 32.75 C-9.49945373 27.64387164 -9.077911 22.64123422 -9 16.9375 C-9.01546875 15.80119141 -9.0309375 14.66488281 -9.046875 13.49414062 C-9.04171875 12.40166016 -9.0365625 11.30917969 -9.03125 10.18359375 C-9.02673828 9.18900146 -9.02222656 8.19440918 -9.01757812 7.16967773 C-8.05166933 2.18750193 -4.95224604 -0.06783899 0 0 Z " fill="#F6F7FA" transform="translate(945.5,1072.5)"/>
<path d="M0 0 C0.7528125 -0.0103125 1.505625 -0.020625 2.28125 -0.03125 C5.38464412 0.7118162 6.50273488 2.03533366 8.5 4.5 C9.01757812 7.27734375 9.01757812 7.27734375 9.03125 10.4375 C9.03640625 11.57960938 9.0415625 12.72171875 9.046875 13.8984375 C9.03140625 15.08695313 9.0159375 16.27546875 9 17.5 C9.01546875 18.68851563 9.0309375 19.87703125 9.046875 21.1015625 C9.04171875 22.24367188 9.0365625 23.38578125 9.03125 24.5625 C9.02673828 25.60535156 9.02222656 26.64820313 9.01757812 27.72265625 C8.37508686 31.17028863 7.21725876 32.35209265 4.5 34.5 C2.28125 35.06640625 2.28125 35.06640625 0 35.0625 C-0.7528125 35.08441406 -1.505625 35.10632812 -2.28125 35.12890625 C-4.5 34.5 -4.5 34.5 -6.75 32.75 C-9.49945373 27.64387164 -9.077911 22.64123422 -9 16.9375 C-9.01546875 15.80119141 -9.0309375 14.66488281 -9.046875 13.49414062 C-9.04171875 12.40166016 -9.0365625 11.30917969 -9.03125 10.18359375 C-9.02673828 9.18900146 -9.02222656 8.19440918 -9.01757812 7.16967773 C-8.05166933 2.18750193 -4.95224604 -0.06783899 0 0 Z " fill="#F6F7FA" transform="translate(789.5,1072.5)"/>
<path d="M0 0 C0.7528125 -0.0103125 1.505625 -0.020625 2.28125 -0.03125 C5.38464412 0.7118162 6.50273488 2.03533366 8.5 4.5 C9.01757812 7.27734375 9.01757812 7.27734375 9.03125 10.4375 C9.03640625 11.57960938 9.0415625 12.72171875 9.046875 13.8984375 C9.03140625 15.08695313 9.0159375 16.27546875 9 17.5 C9.01546875 18.68851563 9.0309375 19.87703125 9.046875 21.1015625 C9.04171875 22.24367188 9.0365625 23.38578125 9.03125 24.5625 C9.02673828 25.60535156 9.02222656 26.64820313 9.01757812 27.72265625 C8.37508686 31.17028863 7.21725876 32.35209265 4.5 34.5 C2.28125 35.06640625 2.28125 35.06640625 0 35.0625 C-0.7528125 35.08441406 -1.505625 35.10632812 -2.28125 35.12890625 C-4.5 34.5 -4.5 34.5 -6.75 32.75 C-9.49945373 27.64387164 -9.077911 22.64123422 -9 16.9375 C-9.01546875 15.80119141 -9.0309375 14.66488281 -9.046875 13.49414062 C-9.04171875 12.40166016 -9.0365625 11.30917969 -9.03125 10.18359375 C-9.02673828 9.18900146 -9.02222656 8.19440918 -9.01757812 7.16967773 C-8.05166933 2.18750193 -4.95224604 -0.06783899 0 0 Z " fill="#F6F7FA" transform="translate(363.5,1072.5)"/>
<path d="M0 0 C3.96 0 7.92 0 12 0 C16 4 16 4 16.4609375 6.47265625 C16.41839844 7.75462891 16.41839844 7.75462891 16.375 9.0625 C16.35566406 10.34833984 16.35566406 10.34833984 16.3359375 11.66015625 C16 14 16 14 14 17 C14.66 17.66 15.32 18.32 16 19 C16.14497985 21.58064129 16.18677545 24.04943884 16.125 26.625 C16.11597656 27.33140625 16.10695313 28.0378125 16.09765625 28.765625 C16.07407603 30.51056098 16.03820461 32.25532295 16 34 C14.02 34 12.04 34 10 34 C9.67 29.71 9.34 25.42 9 21 C8.01 20.67 7.02 20.34 6 20 C6 24.62 6 29.24 6 34 C4.02 34 2.04 34 0 34 C0 22.78 0 11.56 0 0 Z " fill="#F7F8FA" transform="translate(753,1073)"/>
<path d="M0 0 C3.96 0 7.92 0 12 0 C16 4 16 4 16.4609375 6.47265625 C16.41839844 7.75462891 16.41839844 7.75462891 16.375 9.0625 C16.35566406 10.34833984 16.35566406 10.34833984 16.3359375 11.66015625 C16 14 16 14 14 17 C14.66 17.66 15.32 18.32 16 19 C16.14497985 21.58064129 16.18677545 24.04943884 16.125 26.625 C16.11597656 27.33140625 16.10695313 28.0378125 16.09765625 28.765625 C16.07407603 30.51056098 16.03820461 32.25532295 16 34 C14.02 34 12.04 34 10 34 C9.67 29.71 9.34 25.42 9 21 C8.01 20.67 7.02 20.34 6 20 C6 24.62 6 29.24 6 34 C4.02 34 2.04 34 0 34 C0 22.78 0 11.56 0 0 Z " fill="#F7F8FA" transform="translate(448,1073)"/>
<path d="M0 0 C2.31 0 4.62 0 7 0 C8.32 4.95 9.64 9.9 11 15 C11.33 10.05 11.66 5.1 12 0 C13.65 0 15.3 0 17 0 C17 11.22 17 22.44 17 34 C15.02 34 13.04 34 11 34 C10.34838988 32.12699975 9.70397805 30.2514945 9.0625 28.375 C8.70285156 27.33085938 8.34320312 26.28671875 7.97265625 25.2109375 C7 22 7 22 6 16 C5.67 21.94 5.34 27.88 5 34 C3.35 34 1.7 34 0 34 C0 22.78 0 11.56 0 0 Z " fill="#FAFBFC" transform="translate(967,1073)"/>
<path d="M0 0 C2.31 0 4.62 0 7 0 C8.32 4.95 9.64 9.9 11 15 C11.33 10.05 11.66 5.1 12 0 C13.65 0 15.3 0 17 0 C17 11.22 17 22.44 17 34 C15.02 34 13.04 34 11 34 C10.34838988 32.12699975 9.70397805 30.2514945 9.0625 28.375 C8.70285156 27.33085938 8.34320313 26.28671875 7.97265625 25.2109375 C7 22 7 22 6 16 C5.67 21.94 5.34 27.88 5 34 C3.35 34 1.7 34 0 34 C0 22.78 0 11.56 0 0 Z " fill="#FAFBFC" transform="translate(496,1073)"/>
<path d="M0 0 C2.97 0 5.94 0 9 0 C9.71626282 4.19851931 10.42821704 8.39773988 11.13623047 12.59765625 C11.37756682 14.02558999 11.62006848 15.45332731 11.86376953 16.88085938 C12.2143498 18.93568902 12.56069948 20.99119431 12.90625 23.046875 C13.11572266 24.28276367 13.32519531 25.51865234 13.54101562 26.79199219 C14 30 14 30 14 34 C12.02 34 10.04 34 8 34 C7.67 31.69 7.34 29.38 7 27 C5.35 27.33 3.7 27.66 2 28 C1.67 29.98 1.34 31.96 1 34 C-0.65 34 -2.3 34 -4 34 C-4.31272716 26.24480076 -3.37074417 18.99744899 -2 11.375 C-1.80921875 10.27542969 -1.6184375 9.17585938 -1.421875 8.04296875 C-0.95537214 5.36057731 -0.48129606 2.67976943 0 0 Z " fill="#F3F5F8" transform="translate(1000,1073)"/>
<path d="M0 0 C2.97 0 5.94 0 9 0 C9.71626282 4.19851931 10.42821704 8.39773988 11.13623047 12.59765625 C11.37756682 14.02558999 11.62006848 15.45332731 11.86376953 16.88085938 C12.2143498 18.93568902 12.56069948 20.99119431 12.90625 23.046875 C13.11572266 24.28276367 13.32519531 25.51865234 13.54101562 26.79199219 C14 30 14 30 14 34 C12.02 34 10.04 34 8 34 C7.67 31.69 7.34 29.38 7 27 C5.35 27.33 3.7 27.66 2 28 C1.67 29.98 1.34 31.96 1 34 C-0.65 34 -2.3 34 -4 34 C-4.31272716 26.24480076 -3.37074417 18.99744899 -2 11.375 C-1.80921875 10.27542969 -1.6184375 9.17585938 -1.421875 8.04296875 C-0.95537214 5.36057731 -0.48129606 2.67976943 0 0 Z " fill="#F3F5F8" transform="translate(656,1073)"/>
<path d="M0 0 C1.14662109 0.00193359 1.14662109 0.00193359 2.31640625 0.00390625 C4.96609579 0.54555549 5.87553223 1.24283642 7.4375 3.4375 C7.82828556 6.16257798 7.57366953 8.66871956 7.4375 11.4375 C5.7875 11.4375 4.1375 11.4375 2.4375 11.4375 C2.1075 9.7875 1.7775 8.1375 1.4375 6.4375 C0.4475 6.4375 -0.5425 6.4375 -1.5625 6.4375 C-1.5625 13.6975 -1.5625 20.9575 -1.5625 28.4375 C-0.5725 28.4375 0.4175 28.4375 1.4375 28.4375 C1.7675 25.7975 2.0975 23.1575 2.4375 20.4375 C1.4475 20.4375 0.4575 20.4375 -0.5625 20.4375 C-0.5625 18.4575 -0.5625 16.4775 -0.5625 14.4375 C2.4075 14.4375 5.3775 14.4375 8.4375 14.4375 C8.54604617 16.83456123 8.62503157 19.22665838 8.6875 21.625 C8.73777344 22.63530273 8.73777344 22.63530273 8.7890625 23.66601562 C8.85858173 27.22887623 8.52124349 29.29509834 6.703125 32.38671875 C4.19999646 34.65248165 3.25788129 35.11935584 -0.0625 35.0625 C-1.19171875 35.08183594 -1.19171875 35.08183594 -2.34375 35.1015625 C-4.5625 34.4375 -4.5625 34.4375 -6.8125 32.68359375 C-9.56369873 27.58036574 -9.1403843 22.57677994 -9.0625 16.875 C-9.07796875 15.73869141 -9.0934375 14.60238281 -9.109375 13.43164062 C-9.10421875 12.33916016 -9.0990625 11.24667969 -9.09375 10.12109375 C-9.08923828 9.12650146 -9.08472656 8.13190918 -9.08007812 7.10717773 C-8.10284309 2.066581 -4.99256325 -0.1267148 0 0 Z " fill="#F1F4F7" transform="translate(632.5625,1072.5625)"/>
<path d="M0 0 C1.14662109 0.00193359 1.14662109 0.00193359 2.31640625 0.00390625 C4.96609579 0.54555549 5.87553223 1.24283642 7.4375 3.4375 C7.82828556 6.16257798 7.57366953 8.66871956 7.4375 11.4375 C5.7875 11.4375 4.1375 11.4375 2.4375 11.4375 C2.1075 9.7875 1.7775 8.1375 1.4375 6.4375 C0.4475 6.4375 -0.5425 6.4375 -1.5625 6.4375 C-1.5625 13.6975 -1.5625 20.9575 -1.5625 28.4375 C-0.5725 28.4375 0.4175 28.4375 1.4375 28.4375 C1.7675 25.7975 2.0975 23.1575 2.4375 20.4375 C1.4475 20.4375 0.4575 20.4375 -0.5625 20.4375 C-0.5625 18.4575 -0.5625 16.4775 -0.5625 14.4375 C2.4075 14.4375 5.3775 14.4375 8.4375 14.4375 C8.54604617 16.83456123 8.62503157 19.22665838 8.6875 21.625 C8.73777344 22.63530273 8.73777344 22.63530273 8.7890625 23.66601562 C8.85858173 27.22887623 8.52124349 29.29509834 6.703125 32.38671875 C4.19999646 34.65248165 3.25788129 35.11935584 -0.0625 35.0625 C-1.19171875 35.08183594 -1.19171875 35.08183594 -2.34375 35.1015625 C-4.5625 34.4375 -4.5625 34.4375 -6.8125 32.68359375 C-9.56369873 27.58036574 -9.1403843 22.57677994 -9.0625 16.875 C-9.07796875 15.73869141 -9.0934375 14.60238281 -9.109375 13.43164062 C-9.10421875 12.33916016 -9.0990625 11.24667969 -9.09375 10.12109375 C-9.08923828 9.12650146 -9.08472656 8.13190918 -9.08007812 7.10717773 C-8.10284309 2.066581 -4.99256325 -0.1267148 0 0 Z " fill="#F1F4F7" transform="translate(533.5625,1072.5625)"/>
<path d="M0 0 C3.96 0 7.92 0 12 0 C16 4 16 4 16.53125 6.875 C16.5209375 7.90625 16.510625 8.9375 16.5 10 C16.5103125 11.03125 16.520625 12.0625 16.53125 13.125 C15.86597317 16.72532165 14.99910435 17.92062098 12 20 C10.02 20 8.04 20 6 20 C6 24.62 6 29.24 6 34 C4.02 34 2.04 34 0 34 C0 22.78 0 11.56 0 0 Z " fill="#F4F7F9" transform="translate(725,1073)"/>
<path d="M0 0 C3.96 0 7.92 0 12 0 C16 4 16 4 16.53125 6.875 C16.5209375 7.90625 16.510625 8.9375 16.5 10 C16.5103125 11.03125 16.520625 12.0625 16.53125 13.125 C15.86597317 16.72532165 14.99910435 17.92062098 12 20 C10.02 20 8.04 20 6 20 C6 24.62 6 29.24 6 34 C4.02 34 2.04 34 0 34 C0 22.78 0 11.56 0 0 Z " fill="#F4F7F9" transform="translate(328,1073)"/>
<path d="M0 0 C1.8046875 0.640625 1.8046875 0.640625 3.8046875 2.328125 C5.05789635 5.22617047 5.0177292 7.51601339 4.8046875 10.640625 C2.8246875 10.640625 0.8446875 10.640625 -1.1953125 10.640625 C-1.1953125 8.990625 -1.1953125 7.340625 -1.1953125 5.640625 C-2.1853125 5.970625 -3.1753125 6.300625 -4.1953125 6.640625 C-4.08396719 11.20578288 -2.86530195 13.2984267 0.3046875 16.390625 C0.93375 16.96296875 1.5628125 17.5353125 2.2109375 18.125 C4.81486272 20.60128183 5.00735359 22.53562413 5.1171875 26.015625 C5.06156017 29.15604045 4.92383628 30.43707916 3.3046875 33.203125 C-0.23292411 35.23725168 -3.21070449 35.44081267 -7.1953125 34.640625 C-9.6953125 33.015625 -9.6953125 33.015625 -11.1953125 30.640625 C-11.4453125 27.390625 -11.4453125 27.390625 -11.1953125 24.640625 C-9.5453125 24.640625 -7.8953125 24.640625 -6.1953125 24.640625 C-5.8653125 25.960625 -5.5353125 27.280625 -5.1953125 28.640625 C-4.2053125 28.640625 -3.2153125 28.640625 -2.1953125 28.640625 C-1.77544304 26.35226278 -1.77544304 26.35226278 -2.1953125 23.640625 C-4.465754 21.11969469 -4.465754 21.11969469 -7.1953125 18.640625 C-9.90341988 15.34698089 -11.47079495 12.81960658 -11.7578125 8.578125 C-11.1953125 4.640625 -11.1953125 4.640625 -9.1953125 1.578125 C-5.66120058 -0.70432228 -4.02072123 -0.81931678 0 0 Z " fill="#F4F6F9" transform="translate(1062.1953125,1072.359375)"/>
<path d="M0 0 C1.8046875 0.640625 1.8046875 0.640625 3.8046875 2.328125 C5.05789635 5.22617047 5.0177292 7.51601339 4.8046875 10.640625 C2.8246875 10.640625 0.8446875 10.640625 -1.1953125 10.640625 C-1.1953125 8.990625 -1.1953125 7.340625 -1.1953125 5.640625 C-2.1853125 5.970625 -3.1753125 6.300625 -4.1953125 6.640625 C-4.08396719 11.20578288 -2.86530195 13.2984267 0.3046875 16.390625 C0.93375 16.96296875 1.5628125 17.5353125 2.2109375 18.125 C4.81486272 20.60128183 5.00735359 22.53562413 5.1171875 26.015625 C5.06156017 29.15604045 4.92383628 30.43707916 3.3046875 33.203125 C-0.23292411 35.23725168 -3.21070449 35.44081267 -7.1953125 34.640625 C-9.6953125 33.015625 -9.6953125 33.015625 -11.1953125 30.640625 C-11.4453125 27.390625 -11.4453125 27.390625 -11.1953125 24.640625 C-9.5453125 24.640625 -7.8953125 24.640625 -6.1953125 24.640625 C-5.8653125 25.960625 -5.5353125 27.280625 -5.1953125 28.640625 C-4.2053125 28.640625 -3.2153125 28.640625 -2.1953125 28.640625 C-1.77544304 26.35226278 -1.77544304 26.35226278 -2.1953125 23.640625 C-4.465754 21.11969469 -4.465754 21.11969469 -7.1953125 18.640625 C-9.90341988 15.34698089 -11.47079495 12.81960658 -11.7578125 8.578125 C-11.1953125 4.640625 -11.1953125 4.640625 -9.1953125 1.578125 C-5.66120058 -0.70432228 -4.02072123 -0.81931678 0 0 Z " fill="#F4F6F9" transform="translate(902.1953125,1072.359375)"/>
<path d="M0 0 C1.8046875 0.640625 1.8046875 0.640625 3.8046875 2.328125 C5.05789635 5.22617047 5.0177292 7.51601339 4.8046875 10.640625 C2.8246875 10.640625 0.8446875 10.640625 -1.1953125 10.640625 C-1.1953125 8.990625 -1.1953125 7.340625 -1.1953125 5.640625 C-2.1853125 5.970625 -3.1753125 6.300625 -4.1953125 6.640625 C-4.08396719 11.20578288 -2.86530195 13.2984267 0.3046875 16.390625 C0.93375 16.96296875 1.5628125 17.5353125 2.2109375 18.125 C4.81486272 20.60128183 5.00735359 22.53562413 5.1171875 26.015625 C5.06156017 29.15604045 4.92383628 30.43707916 3.3046875 33.203125 C-0.23292411 35.23725168 -3.21070449 35.44081267 -7.1953125 34.640625 C-9.6953125 33.015625 -9.6953125 33.015625 -11.1953125 30.640625 C-11.4453125 27.390625 -11.4453125 27.390625 -11.1953125 24.640625 C-9.5453125 24.640625 -7.8953125 24.640625 -6.1953125 24.640625 C-5.8653125 25.960625 -5.5353125 27.280625 -5.1953125 28.640625 C-4.2053125 28.640625 -3.2153125 28.640625 -2.1953125 28.640625 C-1.77544304 26.35226278 -1.77544304 26.35226278 -2.1953125 23.640625 C-4.465754 21.11969469 -4.465754 21.11969469 -7.1953125 18.640625 C-9.90341988 15.34698089 -11.47079495 12.81960658 -11.7578125 8.578125 C-11.1953125 4.640625 -11.1953125 4.640625 -9.1953125 1.578125 C-5.66120058 -0.70432228 -4.02072123 -0.81931678 0 0 Z " fill="#F4F6F9" transform="translate(874.1953125,1072.359375)"/>
<path d="M0 0 C4.95 0 9.9 0 15 0 C15 1.65 15 3.3 15 5 C11.7 5 8.4 5 5 5 C5 7.64 5 10.28 5 13 C7.64 13 10.28 13 13 13 C13 14.98 13 16.96 13 19 C10.69 19 8.38 19 6 19 C6 21.97 6 24.94 6 28 C8.97 28 11.94 28 15 28 C15 29.98 15 31.96 15 34 C10.05 34 5.1 34 0 34 C0 22.78 0 11.56 0 0 Z " fill="#F2F5F8" transform="translate(837,1073)"/>
<path d="M0 0 C4.95 0 9.9 0 15 0 C15 1.65 15 3.3 15 5 C11.7 5 8.4 5 5 5 C5 7.64 5 10.28 5 13 C7.64 13 10.28 13 13 13 C13 14.98 13 16.96 13 19 C10.69 19 8.38 19 6 19 C6 21.97 6 24.94 6 28 C8.97 28 11.94 28 15 28 C15 29.98 15 31.96 15 34 C10.05 34 5.1 34 0 34 C0 22.78 0 11.56 0 0 Z " fill="#F2F5F8" transform="translate(598,1073)"/>
<path d="M0 0 C4.95 0 9.9 0 15 0 C15 1.65 15 3.3 15 5 C11.7 5 8.4 5 5 5 C5 7.64 5 10.28 5 13 C7.64 13 10.28 13 13 13 C13 14.98 13 16.96 13 19 C10.69 19 8.38 19 6 19 C6 21.97 6 24.94 6 28 C8.97 28 11.94 28 15 28 C15 29.98 15 31.96 15 34 C10.05 34 5.1 34 0 34 C0 22.78 0 11.56 0 0 Z " fill="#F2F5F8" transform="translate(421,1073)"/>
<path d="M0 0 C4.95 0 9.9 0 15 0 C15 1.65 15 3.3 15 5 C11.7 5 8.4 5 5 5 C5 7.64 5 10.28 5 13 C7.64 13 10.28 13 13 13 C13 14.98 13 16.96 13 19 C10.69 19 8.38 19 6 19 C6 21.97 6 24.94 6 28 C8.97 28 11.94 28 15 28 C15 29.98 15 31.96 15 34 C10.05 34 5.1 34 0 34 C0 22.78 0 11.56 0 0 Z " fill="#F2F5F8" transform="translate(265,1073)"/>
<path d="M0 0 C4.62 0 9.24 0 14 0 C14 1.65 14 3.3 14 5 C11.36 5 8.72 5 6 5 C6 7.97 6 10.94 6 14 C7.98 14 9.96 14 12 14 C12 15.65 12 17.3 12 19 C10.02 19 8.04 19 6 19 C6 23.95 6 28.9 6 34 C4.02 34 2.04 34 0 34 C0 22.78 0 11.56 0 0 Z " fill="#F6F8FA" transform="translate(811,1073)"/>
<path d="M0 0 C1.98 0 3.96 0 6 0 C6 9.24 6 18.48 6 28 C8.64 28 11.28 28 14 28 C14 29.98 14 31.96 14 34 C9.38 34 4.76 34 0 34 C0 22.78 0 11.56 0 0 Z " fill="#EFF2F6" transform="translate(1026,1073)"/>
<path d="M0 0 C1.98 0 3.96 0 6 0 C6 9.24 6 18.48 6 28 C8.64 28 11.28 28 14 28 C14 29.98 14 31.96 14 34 C9.38 34 4.76 34 0 34 C0 22.78 0 11.56 0 0 Z " fill="#EFF2F6" transform="translate(682,1073)"/>
<path d="M0 0 C1.98 0 3.96 0 6 0 C6 9.24 6 18.48 6 28 C8.64 28 11.28 28 14 28 C14 29.98 14 31.96 14 34 C9.38 34 4.76 34 0 34 C0 22.78 0 11.56 0 0 Z " fill="#EFF2F6" transform="translate(571,1073)"/>
<path d="M0 0 C1.11375 0.1546875 1.11375 0.1546875 2.25 0.3125 C2.35890711 3.31349588 2.43773555 6.31046378 2.5 9.3125 C2.55027344 10.57126953 2.55027344 10.57126953 2.6015625 11.85546875 C2.69844251 18.10422971 1.41893002 21.92282375 -1.75 27.3125 C-5.625 26.4375 -5.625 26.4375 -6.75 25.3125 C-7.05672316 22.07181121 -7.0284209 18.8159183 -7.0625 15.5625 C-7.09150391 14.655 -7.12050781 13.7475 -7.15039062 12.8125 C-7.19071794 8.56882566 -7.09978573 5.95604172 -5.04296875 2.171875 C-2.75 0.3125 -2.75 0.3125 0 0 Z " fill="#2A588D" transform="translate(390.75,927.6875)"/>
<path d="M0 0 C1.98 0 3.96 0 6 0 C6 11.22 6 22.44 6 34 C4.02 34 2.04 34 0 34 C0 22.78 0 11.56 0 0 Z " fill="#EEF1F6" transform="translate(919,1073)"/>
<path d="M0 0 C1.98 0 3.96 0 6 0 C6 11.22 6 22.44 6 34 C4.02 34 2.04 34 0 34 C0 22.78 0 11.56 0 0 Z " fill="#EEF1F6" transform="translate(477,1073)"/>
<path d="M0 0 C1.98 0.495 1.98 0.495 4 1 C4 8.26 4 15.52 4 23 C2.68 23.33 1.36 23.66 0 24 C-1.65394117 22.34605883 -1.12999683 20.39684587 -1.1328125 18.125 C-1.13410156 17.14015625 -1.13539063 16.1553125 -1.13671875 15.140625 C-1.13285156 14.10421875 -1.12898437 13.0678125 -1.125 12 C-1.13080078 10.44539063 -1.13080078 10.44539063 -1.13671875 8.859375 C-1.13542969 7.87453125 -1.13414062 6.8896875 -1.1328125 5.875 C-1.13168457 4.96492188 -1.13055664 4.05484375 -1.12939453 3.1171875 C-1 1 -1 1 0 0 Z " fill="#2F5C90" transform="translate(944,1078)"/>
<path d="M0 0 C1.98 0.495 1.98 0.495 4 1 C4 8.26 4 15.52 4 23 C2.68 23.33 1.36 23.66 0 24 C-1.65394117 22.34605883 -1.12999683 20.39684587 -1.1328125 18.125 C-1.13410156 17.14015625 -1.13539063 16.1553125 -1.13671875 15.140625 C-1.13285156 14.10421875 -1.12898437 13.0678125 -1.125 12 C-1.13080078 10.44539063 -1.13080078 10.44539063 -1.13671875 8.859375 C-1.13542969 7.87453125 -1.13414062 6.8896875 -1.1328125 5.875 C-1.13168457 4.96492188 -1.13055664 4.05484375 -1.12939453 3.1171875 C-1 1 -1 1 0 0 Z " fill="#2F5C90" transform="translate(788,1078)"/>
<path d="M0 0 C1.98 0.495 1.98 0.495 4 1 C4 8.26 4 15.52 4 23 C2.68 23.33 1.36 23.66 0 24 C-1.65394117 22.34605883 -1.12999683 20.39684587 -1.1328125 18.125 C-1.13410156 17.14015625 -1.13539063 16.1553125 -1.13671875 15.140625 C-1.13285156 14.10421875 -1.12898438 13.0678125 -1.125 12 C-1.13080078 10.44539063 -1.13080078 10.44539063 -1.13671875 8.859375 C-1.13542969 7.87453125 -1.13414062 6.8896875 -1.1328125 5.875 C-1.13168457 4.96492188 -1.13055664 4.05484375 -1.12939453 3.1171875 C-1 1 -1 1 0 0 Z " fill="#2F5C90" transform="translate(362,1078)"/>
<path d="M0 0 C0.33 0 0.66 0 1 0 C1 4.62 1 9.24 1 14 C2.32 14 3.64 14 5 14 C5 16.64 5 19.28 5 22 C3.0625 22.5625 3.0625 22.5625 1 23 C0 22 0 22 -0.11352539 19.86694336 C-0.10828857 18.95050049 -0.10305176 18.03405762 -0.09765625 17.08984375 C-0.09443359 16.10048828 -0.09121094 15.11113281 -0.08789062 14.09179688 C-0.07951172 13.05087891 -0.07113281 12.00996094 -0.0625 10.9375 C-0.05798828 9.89271484 -0.05347656 8.84792969 -0.04882812 7.77148438 C-0.03699913 5.1809334 -0.02051689 2.59049441 0 0 Z " fill="#386395" transform="translate(630,1079)"/>
<path d="M0 0 C0.33 0 0.66 0 1 0 C1 4.62 1 9.24 1 14 C2.32 14 3.64 14 5 14 C5 16.64 5 19.28 5 22 C3.0625 22.5625 3.0625 22.5625 1 23 C0 22 0 22 -0.11352539 19.86694336 C-0.10828857 18.95050049 -0.10305176 18.03405762 -0.09765625 17.08984375 C-0.09443359 16.10048828 -0.09121094 15.11113281 -0.08789062 14.09179688 C-0.07951172 13.05087891 -0.07113281 12.00996094 -0.0625 10.9375 C-0.05798828 9.89271484 -0.05347656 8.84792969 -0.04882812 7.77148438 C-0.03699913 5.1809334 -0.02051689 2.59049441 0 0 Z " fill="#386395" transform="translate(531,1079)"/>
<path d="M0 0 C2.475 0.495 2.475 0.495 5 1 C5 3.31 5 5.62 5 8 C3.35 8.33 1.7 8.66 0 9 C0 6.03 0 3.06 0 0 Z " fill="#476F9D" transform="translate(758,1078)"/>
<path d="M0 0 C2.475 0.495 2.475 0.495 5 1 C5 3.31 5 5.62 5 8 C3.35 8.33 1.7 8.66 0 9 C0 6.03 0 3.06 0 0 Z " fill="#476F9D" transform="translate(453,1078)"/>
<path d="M0 0 C1.32 0.33 2.64 0.66 4 1 C4 3.64 4 6.28 4 9 C2.68 9.33 1.36 9.66 0 10 C0 6.7 0 3.4 0 0 Z " fill="#2F5C90" transform="translate(731,1078)"/>
<path d="M0 0 C1.32 0.33 2.64 0.66 4 1 C4 3.64 4 6.28 4 9 C2.68 9.33 1.36 9.66 0 10 C0 6.7 0 3.4 0 0 Z " fill="#2F5C90" transform="translate(334,1078)"/>
<path d="M0 0 C0.33 0 0.66 0 1 0 C1.33 4.29 1.66 8.58 2 13 C1.01 13 0.02 13 -1 13 C-1.07654536 8.48382401 -1.10228696 4.40914783 0 0 Z " fill="#406999" transform="translate(1004,1082)"/>
<path d="M0 0 C0.33 0 0.66 0 1 0 C1.33 4.29 1.66 8.58 2 13 C1.01 13 0.02 13 -1 13 C-1.07654536 8.48382401 -1.10228696 4.40914783 0 0 Z " fill="#406999" transform="translate(660,1082)"/>
<path d="M0 0 C0.33 0 0.66 0 1 0 C1.33 3.96 1.66 7.92 2 12 C1.01 11.67 0.02 11.34 -1 11 C-0.67 7.37 -0.34 3.74 0 0 Z " fill="#5479A4" transform="translate(396,1088)"/>
</svg>
